<?xml version="1.0" encoding="utf-8"?>
<!-- Generator: Adobe Illustrator 24.0.2, SVG Export Plug-In . SVG Version: 6.00 Build 0)  -->
<svg version="1.1" id="Capa_1" xmlns="http://www.w3.org/2000/svg" xmlns:xlink="http://www.w3.org/1999/xlink" x="0px" y="0px"
	 viewBox="0 0 1920 1080" style="enable-background:new 0 0 1920 1080;" xml:space="preserve">
<style type="text/css">
	.st0{fill:#16E6CB;}
	.st1{fill:url(#SVGID_1_);}
	.st2{opacity:0.71;}
	.st3{fill:#FFFFFF;}
	.st4{fill:url(#SVGID_2_);}
	.st5{fill:#FFFFFF;stroke:#FFFFFF;stroke-width:0.25;stroke-miterlimit:10;}
	.st6{fill:#754C24;}
	.st7{fill:#998675;}
	.st8{font-family:'MyriadPro-Regular';}
	.st9{font-size:63.5773px;}
</style>
<g>
	<path class="st0" d="M1090,327.5c-0.7-2-2.6-5.8-5.8-11C1086.4,320.6,1088.4,324.3,1090,327.5z"/>
	<linearGradient id="SVGID_1_" gradientUnits="userSpaceOnUse" x1="17.2512" y1="231.3134" x2="1084.1426" y2="231.3134">
		<stop  offset="0" style="stop-color:#017BFB"/>
		<stop  offset="0.1358" style="stop-color:#09A3E9"/>
		<stop  offset="0.2809" style="stop-color:#10C7D9"/>
		<stop  offset="0.3989" style="stop-color:#14DECF"/>
		<stop  offset="0.4742" style="stop-color:#16E6CB"/>
	</linearGradient>
	<path class="st1" d="M676.5,22.8c-338.3-63.6-461.6,135.8-470,149.9c-25,42-120.8,52.1-149.9,74.9c-87.6,68.7-4.3,156.7,13.6,161.2
		c1.3,0.3-14.2-137.1,102.2-93.1c121.6,46,59.6,75,50,118.1c-13.9,62.1,113.7-45.5,104.4-113.5c-3.2-23.4-42.2-62,11.4-124.9
		c25.2-29.6,60.5-83,154.4-109c343-94.9,554,168.5,591.5,230.1C1047.6,250.2,920.5,68.6,676.5,22.8z"/>
	<g class="st2">
		<path class="st3" d="M144.1,232.4c3.8-0.6,7.7-0.9,11.6-1c3.9,0,7.8,0,11.7,0.3c7.8,0.6,15.5,2,23.1,3.9
			c15.2,3.8,29.7,9.9,43.3,17.7c13.5,8,25.9,17.8,36.4,29.3c5.3,5.8,10.2,11.9,14.5,18.4c4.3,6.5,8.2,13.3,11.5,20.3
			c-7.4-13.7-16.4-26.5-27.1-37.6c-5.4-5.6-11.1-10.8-17.1-15.6c-6.1-4.8-12.5-9.1-19.2-13c-13.3-7.9-27.7-13.9-42.7-18
			c-7.5-2-15.1-3.5-22.8-4.4c-3.8-0.5-7.7-0.7-11.6-0.8C151.8,231.9,147.9,232,144.1,232.4z"/>
	</g>
	<linearGradient id="SVGID_2_" gradientUnits="userSpaceOnUse" x1="170.3043" y1="861.5594" x2="1234.6816" y2="861.5594">
		<stop  offset="0" style="stop-color:#017BFB"/>
		<stop  offset="0.1358" style="stop-color:#09A3E9"/>
		<stop  offset="0.2809" style="stop-color:#10C7D9"/>
		<stop  offset="0.3989" style="stop-color:#14DECF"/>
		<stop  offset="0.4742" style="stop-color:#16E6CB"/>
	</linearGradient>
	<path class="st4" d="M555.1,1047.6c332.7,88.4,470.4-101.4,479.8-114.8c28-40,124.3-43.1,155-63.7c92.5-62.1,15.8-155.9-1.7-161.8
		c-1.3-0.4,4.1,137.8-108.8,85.3c-117.9-54.8-53.9-79.2-41.1-121.4c18.4-60.9-116.7,37-112.5,105.5c1.4,23.6,37.5,64.9-20.5,123.7
		c-27.3,27.7-66.5,78.3-162,97.3c-349.1,69.4-540-208.9-572.9-273.1C201.9,793.4,315.2,983.9,555.1,1047.6z"/>
	<path class="st5" d="M1118.4,868.9c-14.9,4.5-31,5.3-46.6,3.5c-15.6-1.8-31-6-45.5-12.2c-3.6-1.7-7.2-3.3-10.7-5.1l-10.3-5.9
		l-9.7-6.7c-3.2-2.3-6.1-5-9.2-7.4c-11.9-10.4-21.9-22.6-29.9-36c9.5,12.4,20.2,23.6,32.2,33.3c12,9.7,25.2,17.7,39.3,23.7
		c14.1,6.1,28.9,10.4,44.1,12.8c3.8,0.6,7.6,0.9,11.5,1.4c3.8,0.2,7.7,0.6,11.5,0.5C1103,871,1110.7,870.3,1118.4,868.9z"/>
	<g>
		<g>
			<path class="st0" d="M669.7,985.5c-0.1,0-0.1,0-0.2,0c-3.5-0.1-6.4-2.8-6.6-6.3L601.3,148l-97.4,586.5c-0.5,3.3-3.4,5.7-6.7,5.7
				c0,0,0,0,0,0c-3.3,0-6.2-2.4-6.7-5.7l-43.9-259.4L417.1,541c-1.1,2.5-3.5,4-6.2,4H70.3v-13.6h336.2l36.8-82.3
				c1.2-2.7,4.1-4.4,7.1-4c3,0.4,5.4,2.7,5.9,5.6l40.9,241.5L597.2,89.8c0.6-3.4,3.6-5.8,7-5.7c3.4,0.2,6.2,2.9,6.5,6.3l60.8,819.4
				l61.9-497.3c0.4-3.4,3.3-6,6.8-6c0,0,0,0,0,0c3.5,0,6.3,2.6,6.7,6l29.4,258.8l29.8-136.9c0.7-3.1,3.5-5.4,6.7-5.4h1078.5v13.6
				H818.3l-37.4,171.7c-0.7,3.3-3.6,5.6-7,5.4c-3.3-0.2-6-2.7-6.4-6l-27.6-242.9l-63.3,508.6C676.1,982.9,673.1,985.5,669.7,985.5z"
				/>
		</g>
		<circle class="st0" cx="1893.6" cy="535.9" r="18.2"/>
	</g>
	<circle class="st0" cx="74.8" cy="538.2" r="18.2"/>
	<path class="st6" d="M940.3,402.2v36.5h-3.4c-2.6-9.5-7.4-16.8-14.4-21.9c-7-5.1-15-7.6-23.9-7.6c-7.5,0-14.3,1.9-20.5,5.7
		c-6.2,3.8-10.8,8.7-13.6,14.8c-3.7,7.8-5.5,16.5-5.5,26.1c0,9.4,1.3,18,4,25.7c2.7,7.7,6.9,13.6,12.7,17.5c5.8,4,13.2,5.9,22.4,5.9
		c7.5,0,14.4-1.4,20.6-4.3c6.3-2.9,12.8-7.9,19.8-15v9.1c-6.7,6.2-13.7,10.6-20.9,13.4c-7.2,2.8-15.7,4.2-25.4,4.2
		c-12.7,0-24-2.3-33.9-6.8c-9.9-4.5-17.5-11-22.9-19.4c-5.4-8.4-8.1-17.4-8.1-26.9c0-10,3-19.6,8.9-28.6c6-9,14-16,24.1-21
		s20.9-7.5,32.3-7.5c8.4,0,17.3,1.6,26.6,4.8c5.4,1.9,8.8,2.8,10.3,2.8c1.9,0,3.5-0.6,4.9-1.8c1.4-1.2,2.3-3.1,2.7-5.8H940.3z"/>
	<path class="st6" d="M1025.2,479.9H983l-5,10.2c-1.6,3.4-2.5,6.2-2.5,8.5c0,2.9,1.3,5.1,4.1,6.5c1.6,0.8,5.5,1.4,11.7,1.9v2.9
		h-39.7V507c4.3-0.6,7.8-2.1,10.6-4.7c2.8-2.6,6.2-7.9,10.2-15.9l42.7-84h1.7l43,86.3c4.1,8.2,7.5,13.3,10.1,15.4
		c2,1.6,4.8,2.5,8.5,2.8v2.9h-57.8V507h2.4c4.6,0,7.9-0.6,9.8-1.7c1.3-0.8,1.9-2,1.9-3.6c0-0.9-0.2-1.9-0.5-2.9
		c-0.1-0.5-1-2.4-2.6-5.8L1025.2,479.9z M1022.2,474.2l-17.8-36.2l-18.3,36.2H1022.2z"/>
	<path class="st6" d="M1166.3,474l32.4-69.4h48.6v2.9h-3.9c-3.5,0-6.3,0.5-8.5,1.6c-1.5,0.7-2.6,1.9-3.5,3.6c-0.6,1.2-1,4.5-1,9.7
		v69.4c0,5.4,0.3,8.7,1,10.1c0.6,1.3,2,2.5,4,3.5c2,1,4.7,1.5,8,1.5h3.9v2.9H1185V507h3.9c3.5,0,6.3-0.5,8.5-1.6
		c1.5-0.7,2.6-2,3.5-3.7c0.6-1.2,1-4.5,1-9.8v-78l-45.8,96h-2.1l-46.5-95.3v74.1c0,5.2,0.1,8.4,0.4,9.5c0.8,2.6,2.4,4.7,5,6.3
		c2.6,1.6,6.6,2.4,12,2.4v2.9H1084V507h1.2c2.6,0.1,5.1-0.3,7.4-1.1c2.3-0.8,4-1.9,5.2-3.2c1.2-1.3,2.1-3.2,2.7-5.7
		c0.1-0.6,0.2-3.2,0.2-7.9v-66.6c0-5.3-0.3-8.7-1-10c-0.6-1.3-2-2.5-4-3.5c-2-1-4.7-1.5-8-1.5h-3.8v-2.9h48.8L1166.3,474z"/>
	<path class="st6" d="M1299.7,410.7v42.8h2.4c7.6,0,13.1-2.1,16.5-6.3c3.4-4.2,5.6-10.4,6.5-18.5h3.3v55.1h-3.3
		c-0.7-6-2.2-10.9-4.4-14.7c-2.3-3.8-4.9-6.4-7.9-7.7c-3-1.3-7.3-2-13-2V489c0,5.8,0.3,9.3,0.8,10.6c0.6,1.3,1.6,2.4,3.1,3.2
		c1.5,0.8,4,1.2,7.4,1.2h7.1c11.2,0,20.1-2.3,26.8-6.8c6.7-4.6,11.5-11.5,14.5-20.8h3.3l-5.4,33.4h-103.2V507h4
		c3.5,0,6.3-0.5,8.4-1.6c1.5-0.7,2.7-2,3.5-3.7c0.6-1.2,1-4.5,1-9.8v-69.2c0-4.8-0.1-7.7-0.4-8.8c-0.6-1.8-1.7-3.2-3.3-4.2
		c-2.2-1.4-5.3-2.2-9.2-2.2h-4v-2.9h99.9v31.1h-3.3c-1.7-7.6-4.1-13.1-7.2-16.4c-3.1-3.3-7.4-5.7-13.1-7.3
		c-3.3-0.9-9.4-1.4-18.5-1.4H1299.7z"/>
	<path class="st6" d="M1484.6,404.6v28.5h-3.2c-1.9-6.6-4-11.3-6.3-14.2c-2.3-2.9-5.4-5.2-9.4-6.9c-2.2-0.9-6.1-1.4-11.7-1.4h-8.9
		v81.2c0,5.4,0.3,8.7,1,10.1c0.7,1.3,2,2.5,4,3.5c2,1,4.7,1.5,8.1,1.5h4v2.9h-62.5V507h4c3.5,0,6.3-0.5,8.4-1.6
		c1.5-0.7,2.7-2,3.6-3.7c0.6-1.2,1-4.5,1-9.8v-81.2h-8.6c-8,0-13.9,1.5-17.5,4.5c-5.1,4.2-8.3,10.2-9.7,17.9h-3.3v-28.5H1484.6z"/>
	<path class="st6" d="M1617.6,402.2l1,35.1h-3.6c-1.7-8.8-5.9-15.9-12.5-21.2c-6.7-5.4-13.9-8-21.6-8c-6,0-10.7,1.4-14.2,4.2
		c-3.5,2.8-5.2,6.1-5.2,9.7c0,2.3,0.6,4.4,1.8,6.2c1.7,2.4,4.4,4.8,8.2,7.2c2.8,1.7,9.1,4.7,19.1,9.1c14,6.1,23.4,11.8,28.3,17.2
		c4.8,5.4,7.2,11.5,7.2,18.5c0,8.8-3.9,16.4-11.7,22.7c-7.8,6.3-17.7,9.5-29.6,9.5c-3.8,0-7.3-0.3-10.7-1c-3.3-0.7-7.5-1.9-12.6-3.8
		c-2.8-1-5.1-1.6-7-1.6c-1.5,0-3.1,0.5-4.8,1.6c-1.7,1-3.1,2.6-4.1,4.7h-3.3v-39.7h3.3c2.6,11.2,7.6,19.7,14.9,25.6
		c7.4,5.9,15.3,8.8,23.8,8.8c6.6,0,11.8-1.6,15.7-4.7c3.9-3.2,5.9-6.8,5.9-11c0-2.5-0.7-4.9-2.2-7.2c-1.5-2.3-3.8-4.5-6.8-6.6
		c-3.1-2.1-8.5-4.8-16.2-8.2c-10.9-4.7-18.7-8.7-23.4-12c-4.8-3.3-8.4-7-11-11.1c-2.6-4.1-3.8-8.6-3.8-13.5
		c0-8.4,3.5-15.5,10.5-21.4c7-5.9,15.8-8.8,26.4-8.8c3.9,0,7.6,0.4,11.3,1.2c2.8,0.6,6.1,1.8,10.1,3.5c4,1.7,6.7,2.5,8.3,2.5
		c1.5,0,2.7-0.4,3.6-1.2c0.9-0.8,1.7-2.8,2.5-6H1617.6z"/>
	<path class="st6" d="M1708.2,479.9H1666l-5,10.2c-1.6,3.4-2.5,6.2-2.5,8.5c0,2.9,1.3,5.1,4.1,6.5c1.6,0.8,5.5,1.4,11.7,1.9v2.9
		h-39.7V507c4.3-0.6,7.8-2.1,10.6-4.7c2.8-2.6,6.2-7.9,10.2-15.9l42.7-84h1.7l43.1,86.3c4.1,8.2,7.5,13.3,10.1,15.4
		c2,1.6,4.8,2.5,8.5,2.8v2.9h-57.8V507h2.4c4.6,0,7.9-0.6,9.8-1.7c1.3-0.8,1.9-2,1.9-3.6c0-0.9-0.2-1.9-0.5-2.9
		c-0.1-0.5-1-2.4-2.6-5.8L1708.2,479.9z M1705.2,474.2l-17.8-36.2l-18.3,36.2H1705.2z"/>
	<path class="st6" d="M1848.1,402.2l1,35.1h-3.6c-1.7-8.8-5.9-15.9-12.5-21.2c-6.7-5.4-13.9-8-21.6-8c-6,0-10.7,1.4-14.2,4.2
		c-3.5,2.8-5.2,6.1-5.2,9.7c0,2.3,0.6,4.4,1.8,6.2c1.7,2.4,4.4,4.8,8.2,7.2c2.8,1.7,9.1,4.7,19.1,9.1c14,6.1,23.4,11.8,28.3,17.2
		c4.8,5.4,7.2,11.5,7.2,18.5c0,8.8-3.9,16.4-11.7,22.7c-7.8,6.3-17.7,9.5-29.6,9.5c-3.8,0-7.3-0.3-10.7-1c-3.3-0.7-7.5-1.9-12.6-3.8
		c-2.8-1-5.1-1.6-7-1.6c-1.5,0-3.1,0.5-4.8,1.6c-1.7,1-3.1,2.6-4.1,4.7h-3.3v-39.7h3.3c2.6,11.2,7.6,19.7,14.9,25.6
		c7.4,5.9,15.3,8.8,23.8,8.8c6.6,0,11.8-1.6,15.7-4.7c3.9-3.2,5.9-6.8,5.9-11c0-2.5-0.7-4.9-2.2-7.2c-1.5-2.3-3.8-4.5-6.8-6.6
		c-3.1-2.1-8.5-4.8-16.2-8.2c-10.9-4.7-18.7-8.7-23.4-12c-4.8-3.3-8.4-7-11-11.1c-2.6-4.1-3.8-8.6-3.8-13.5
		c0-8.4,3.5-15.5,10.5-21.4c7-5.9,15.8-8.8,26.4-8.8c3.9,0,7.6,0.4,11.3,1.2c2.8,0.6,6.1,1.8,10.1,3.5c4,1.7,6.7,2.5,8.3,2.5
		c1.5,0,2.7-0.4,3.6-1.2c0.9-0.8,1.7-2.8,2.5-6H1848.1z"/>
	<text transform="matrix(1.0857 0 0 1 841.02 614.293)" class="st7 st8 st9">El alivio ideal para equipos médicos</text>
</g>
</svg>
