<?xml version="1.0" encoding="utf-8"?>
<!-- Generator: Adobe Illustrator 24.0.2, SVG Export Plug-In . SVG Version: 6.00 Build 0)  -->
<svg version="1.1" id="Capa_1" xmlns="http://www.w3.org/2000/svg" xmlns:xlink="http://www.w3.org/1999/xlink" x="0px" y="0px"
	 viewBox="0 0 1920 1080" style="enable-background:new 0 0 1920 1080;" xml:space="preserve">
<style type="text/css">
	.st0{fill:#FFFFFF;}
	.st1{clip-path:url(#SVGID_2_);fill:#FFFFFF;}
	.st2{opacity:0.71;}
	.st3{clip-path:url(#SVGID_4_);fill:#FFFFFF;}
</style>
<g>
	<g>
		<path class="st0" d="M1090,327.5c-0.7-2-2.6-5.8-5.8-11C1086.4,320.6,1088.4,324.3,1090,327.5z"/>
	</g>
	<g>
		<g>
			<defs>
				<path id="SVGID_1_" d="M676.5,22.8c-338.3-63.6-461.6,135.8-470,149.9c-25,42-120.8,52.1-149.9,74.9
					c-87.6,68.7-4.3,156.7,13.6,161.2c1.3,0.3-14.2-137.1,102.2-93.1c121.6,46,59.6,75,50,118.1c-13.9,62.1,113.7-45.5,104.4-113.5
					c-3.2-23.4-42.2-62,11.4-124.9c25.2-29.6,60.5-83,154.4-109c343-94.9,554,168.5,591.5,230.1C1047.6,250.2,920.5,68.6,676.5,22.8
					z"/>
			</defs>
			<use xlink:href="#SVGID_1_"  style="overflow:visible;fill:#FFFFFF;"/>
			<clipPath id="SVGID_2_">
				<use xlink:href="#SVGID_1_"  style="overflow:visible;"/>
			</clipPath>
			<rect x="-31" y="-40.8" class="st1" width="48.2" height="536.7"/>
			<rect x="17.3" y="-40.8" class="st1" width="4.7" height="536.7"/>
			<rect x="22" y="-40.8" class="st1" width="4.7" height="536.7"/>
			<rect x="26.7" y="-40.8" class="st1" width="4.7" height="536.7"/>
			<rect x="31.4" y="-40.8" class="st1" width="4.7" height="536.7"/>
			<rect x="36.2" y="-40.8" class="st1" width="4.7" height="536.7"/>
			<rect x="40.9" y="-40.8" class="st1" width="4.7" height="536.7"/>
			<rect x="45.6" y="-40.8" class="st1" width="4.7" height="536.7"/>
			<rect x="50.4" y="-40.8" class="st1" width="4.7" height="536.7"/>
			<rect x="55.1" y="-40.8" class="st1" width="4.7" height="536.7"/>
			<rect x="59.8" y="-40.8" class="st1" width="4.7" height="536.7"/>
			<rect x="64.5" y="-40.8" class="st1" width="4.7" height="536.7"/>
			<rect x="69.3" y="-40.8" class="st1" width="4.7" height="536.7"/>
			<rect x="74" y="-40.8" class="st1" width="4.7" height="536.7"/>
			<rect x="78.7" y="-40.8" class="st1" width="4.7" height="536.7"/>
			<rect x="83.5" y="-40.8" class="st1" width="4.7" height="536.7"/>
			<rect x="88.2" y="-40.8" class="st1" width="4.7" height="536.7"/>
			<rect x="92.9" y="-40.8" class="st1" width="4.7" height="536.7"/>
			<rect x="97.6" y="-40.8" class="st1" width="4.7" height="536.7"/>
			<rect x="102.4" y="-40.8" class="st1" width="4.7" height="536.7"/>
			<rect x="107.1" y="-40.8" class="st1" width="4.7" height="536.7"/>
			<rect x="111.8" y="-40.8" class="st1" width="4.7" height="536.7"/>
			<rect x="116.5" y="-40.8" class="st1" width="4.7" height="536.7"/>
			<rect x="121.3" y="-40.8" class="st1" width="4.7" height="536.7"/>
			<rect x="126" y="-40.8" class="st1" width="4.7" height="536.7"/>
			<rect x="130.7" y="-40.8" class="st1" width="4.7" height="536.7"/>
			<rect x="135.5" y="-40.8" class="st1" width="4.7" height="536.7"/>
			<rect x="140.2" y="-40.8" class="st1" width="4.7" height="536.7"/>
			<rect x="144.9" y="-40.8" class="st1" width="4.7" height="536.7"/>
			<rect x="149.6" y="-40.8" class="st1" width="4.7" height="536.7"/>
			<rect x="154.4" y="-40.8" class="st1" width="4.7" height="536.7"/>
			<rect x="159.1" y="-40.8" class="st1" width="4.7" height="536.7"/>
			<rect x="163.8" y="-40.8" class="st1" width="4.7" height="536.7"/>
			<rect x="168.6" y="-40.8" class="st1" width="4.7" height="536.7"/>
			<rect x="173.3" y="-40.8" class="st1" width="4.7" height="536.7"/>
			<rect x="178" y="-40.8" class="st1" width="4.7" height="536.7"/>
			<rect x="182.7" y="-40.8" class="st1" width="4.7" height="536.7"/>
			<rect x="187.5" y="-40.8" class="st1" width="4.7" height="536.7"/>
			<rect x="192.2" y="-40.8" class="st1" width="4.7" height="536.7"/>
			<rect x="196.9" y="-40.8" class="st1" width="4.7" height="536.7"/>
			<rect x="201.7" y="-40.8" class="st1" width="4.7" height="536.7"/>
			<rect x="206.4" y="-40.8" class="st1" width="4.7" height="536.7"/>
			<rect x="211.1" y="-40.8" class="st1" width="4.7" height="536.7"/>
			<rect x="215.8" y="-40.8" class="st1" width="4.7" height="536.7"/>
			<rect x="220.6" y="-40.8" class="st1" width="4.7" height="536.7"/>
			<rect x="225.3" y="-40.8" class="st1" width="4.7" height="536.7"/>
			<rect x="230" y="-40.8" class="st1" width="4.7" height="536.7"/>
			<rect x="234.8" y="-40.8" class="st1" width="4.7" height="536.7"/>
			<rect x="239.5" y="-40.8" class="st1" width="4.7" height="536.7"/>
			<rect x="244.2" y="-40.8" class="st1" width="4.7" height="536.7"/>
			<rect x="248.9" y="-40.8" class="st1" width="4.7" height="536.7"/>
			<rect x="253.7" y="-40.8" class="st1" width="4.7" height="536.7"/>
			<rect x="258.4" y="-40.8" class="st1" width="4.7" height="536.7"/>
			<rect x="263.1" y="-40.8" class="st1" width="4.7" height="536.7"/>
			<rect x="267.9" y="-40.8" class="st1" width="4.7" height="536.7"/>
			<rect x="272.6" y="-40.8" class="st1" width="4.7" height="536.7"/>
			<rect x="277.3" y="-40.8" class="st1" width="4.7" height="536.7"/>
			<rect x="282" y="-40.8" class="st1" width="4.7" height="536.7"/>
			<rect x="286.8" y="-40.8" class="st1" width="4.7" height="536.7"/>
			<rect x="291.5" y="-40.8" class="st1" width="4.7" height="536.7"/>
			<rect x="296.2" y="-40.8" class="st1" width="4.7" height="536.7"/>
			<rect x="301" y="-40.8" class="st1" width="4.7" height="536.7"/>
			<rect x="305.7" y="-40.8" class="st1" width="4.7" height="536.7"/>
			<rect x="310.4" y="-40.8" class="st1" width="4.7" height="536.7"/>
			<rect x="315.1" y="-40.8" class="st1" width="4.7" height="536.7"/>
			<rect x="319.9" y="-40.8" class="st1" width="4.7" height="536.7"/>
			<rect x="324.6" y="-40.8" class="st1" width="4.7" height="536.7"/>
			<rect x="329.3" y="-40.8" class="st1" width="4.7" height="536.7"/>
			<rect x="334.1" y="-40.8" class="st1" width="4.7" height="536.7"/>
			<rect x="338.8" y="-40.8" class="st1" width="4.7" height="536.7"/>
			<rect x="343.5" y="-40.8" class="st1" width="4.7" height="536.7"/>
			<rect x="348.2" y="-40.8" class="st1" width="4.7" height="536.7"/>
			<rect x="353" y="-40.8" class="st1" width="4.7" height="536.7"/>
			<rect x="357.7" y="-40.8" class="st1" width="4.7" height="536.7"/>
			<rect x="362.4" y="-40.8" class="st1" width="4.7" height="536.7"/>
			<rect x="367.2" y="-40.8" class="st1" width="4.7" height="536.7"/>
			<rect x="371.9" y="-40.8" class="st1" width="4.7" height="536.7"/>
			<rect x="376.6" y="-40.8" class="st1" width="4.7" height="536.7"/>
			<rect x="381.3" y="-40.8" class="st1" width="4.7" height="536.7"/>
			<rect x="386.1" y="-40.8" class="st1" width="4.7" height="536.7"/>
			<rect x="390.8" y="-40.8" class="st1" width="4.7" height="536.7"/>
			<rect x="395.5" y="-40.8" class="st1" width="4.7" height="536.7"/>
			<rect x="400.3" y="-40.8" class="st1" width="4.7" height="536.7"/>
			<rect x="405" y="-40.8" class="st1" width="4.7" height="536.7"/>
			<rect x="409.7" y="-40.8" class="st1" width="4.7" height="536.7"/>
			<rect x="414.4" y="-40.8" class="st1" width="4.7" height="536.7"/>
			<rect x="419.2" y="-40.8" class="st1" width="4.7" height="536.7"/>
			<rect x="423.9" y="-40.8" class="st1" width="4.7" height="536.7"/>
			<rect x="428.6" y="-40.8" class="st1" width="4.7" height="536.7"/>
			<rect x="433.4" y="-40.8" class="st1" width="4.7" height="536.7"/>
			<rect x="438.1" y="-40.8" class="st1" width="4.7" height="536.7"/>
			<rect x="442.8" y="-40.8" class="st1" width="4.7" height="536.7"/>
			<rect x="447.5" y="-40.8" class="st1" width="4.7" height="536.7"/>
			<rect x="452.3" y="-40.8" class="st1" width="4.7" height="536.7"/>
			<rect x="457" y="-40.8" class="st1" width="4.7" height="536.7"/>
			<rect x="461.7" y="-40.8" class="st1" width="4.7" height="536.7"/>
			<rect x="466.5" y="-40.8" class="st1" width="4.7" height="536.7"/>
			<rect x="471.2" y="-40.8" class="st1" width="4.7" height="536.7"/>
			<rect x="475.9" y="-40.8" class="st1" width="4.7" height="536.7"/>
			<rect x="480.6" y="-40.8" class="st1" width="4.7" height="536.7"/>
			<rect x="485.4" y="-40.8" class="st1" width="4.7" height="536.7"/>
			<rect x="490.1" y="-40.8" class="st1" width="4.7" height="536.7"/>
			<rect x="494.8" y="-40.8" class="st1" width="4.7" height="536.7"/>
			<rect x="499.6" y="-40.8" class="st1" width="4.7" height="536.7"/>
			<rect x="504.3" y="-40.8" class="st1" width="4.7" height="536.7"/>
			<rect x="509" y="-40.8" class="st1" width="4.7" height="536.7"/>
			<rect x="513.7" y="-40.8" class="st1" width="4.7" height="536.7"/>
			<rect x="518.5" y="-40.8" class="st1" width="4.7" height="536.7"/>
			<rect x="523.2" y="-40.8" class="st1" width="560.9" height="536.7"/>
		</g>
	</g>
	<g class="st2">
		<g>
			<path class="st0" d="M144.1,232.4c3.8-0.6,7.7-0.9,11.6-1c3.9,0,7.8,0,11.7,0.3c7.8,0.6,15.5,2,23.1,3.9
				c15.2,3.8,29.7,9.9,43.3,17.7c13.5,8,25.9,17.8,36.4,29.3c5.3,5.8,10.2,11.9,14.5,18.4c4.3,6.5,8.2,13.3,11.5,20.3
				c-7.4-13.7-16.4-26.5-27.1-37.6c-5.4-5.6-11.1-10.8-17.1-15.6c-6.1-4.8-12.5-9.1-19.2-13c-13.3-7.9-27.7-13.9-42.7-18
				c-7.5-2-15.1-3.5-22.8-4.4c-3.8-0.5-7.7-0.7-11.6-0.8C151.8,231.9,147.9,232,144.1,232.4z"/>
		</g>
	</g>
	<g>
		<g>
			<defs>
				<path id="SVGID_3_" d="M555.1,1047.6c332.7,88.4,470.4-101.4,479.8-114.8c28-40,124.3-43.1,155-63.7
					c92.5-62.1,15.8-155.9-1.7-161.8c-1.3-0.4,4.1,137.8-108.8,85.3c-117.9-54.8-53.9-79.2-41.1-121.4
					c18.4-60.9-116.7,37-112.5,105.5c1.4,23.6,37.5,64.9-20.5,123.7c-27.3,27.7-66.5,78.3-162,97.3
					c-349.1,69.4-540-208.9-572.9-273.1C201.9,793.4,315.2,983.9,555.1,1047.6z"/>
			</defs>
			<use xlink:href="#SVGID_3_"  style="overflow:visible;fill:#FFFFFF;"/>
			<clipPath id="SVGID_4_">
				<use xlink:href="#SVGID_3_"  style="overflow:visible;"/>
			</clipPath>
			<path class="st3" d="M170.3,610.3V1136V610.3z"/>
			<rect x="170.3" y="610.3" class="st3" width="4.7" height="525.7"/>
			<rect x="175" y="610.3" class="st3" width="4.7" height="525.7"/>
			<rect x="179.7" y="610.3" class="st3" width="4.7" height="525.7"/>
			<rect x="184.5" y="610.3" class="st3" width="4.7" height="525.7"/>
			<rect x="189.2" y="610.3" class="st3" width="4.7" height="525.7"/>
			<rect x="193.9" y="610.3" class="st3" width="4.7" height="525.7"/>
			<rect x="198.6" y="610.3" class="st3" width="4.7" height="525.7"/>
			<rect x="203.3" y="610.3" class="st3" width="4.7" height="525.7"/>
			<rect x="208" y="610.3" class="st3" width="4.7" height="525.7"/>
			<rect x="212.8" y="610.3" class="st3" width="4.7" height="525.7"/>
			<rect x="217.5" y="610.3" class="st3" width="4.7" height="525.7"/>
			<rect x="222.2" y="610.3" class="st3" width="4.7" height="525.7"/>
			<rect x="226.9" y="610.3" class="st3" width="4.7" height="525.7"/>
			<rect x="231.6" y="610.3" class="st3" width="4.7" height="525.7"/>
			<rect x="236.3" y="610.3" class="st3" width="4.7" height="525.7"/>
			<rect x="241.1" y="610.3" class="st3" width="4.7" height="525.7"/>
			<rect x="245.8" y="610.3" class="st3" width="4.7" height="525.7"/>
			<rect x="250.5" y="610.3" class="st3" width="4.7" height="525.7"/>
			<rect x="255.2" y="610.3" class="st3" width="4.7" height="525.7"/>
			<rect x="259.9" y="610.3" class="st3" width="4.7" height="525.7"/>
			<rect x="264.7" y="610.3" class="st3" width="4.7" height="525.7"/>
			<rect x="269.4" y="610.3" class="st3" width="4.7" height="525.7"/>
			<rect x="274.1" y="610.3" class="st3" width="4.7" height="525.7"/>
			<rect x="278.8" y="610.3" class="st3" width="4.7" height="525.7"/>
			<rect x="283.5" y="610.3" class="st3" width="4.7" height="525.7"/>
			<rect x="288.2" y="610.3" class="st3" width="4.7" height="525.7"/>
			<rect x="293" y="610.3" class="st3" width="4.7" height="525.7"/>
			<rect x="297.7" y="610.3" class="st3" width="4.7" height="525.7"/>
			<rect x="302.4" y="610.3" class="st3" width="4.7" height="525.7"/>
			<rect x="307.1" y="610.3" class="st3" width="4.7" height="525.7"/>
			<rect x="311.8" y="610.3" class="st3" width="4.7" height="525.7"/>
			<rect x="316.5" y="610.3" class="st3" width="4.7" height="525.7"/>
			<rect x="321.3" y="610.3" class="st3" width="4.7" height="525.7"/>
			<rect x="326" y="610.3" class="st3" width="4.7" height="525.7"/>
			<rect x="330.7" y="610.3" class="st3" width="4.7" height="525.7"/>
			<rect x="335.4" y="610.3" class="st3" width="4.7" height="525.7"/>
			<rect x="340.1" y="610.3" class="st3" width="4.7" height="525.7"/>
			<rect x="344.8" y="610.3" class="st3" width="4.7" height="525.7"/>
			<rect x="349.6" y="610.3" class="st3" width="4.7" height="525.7"/>
			<rect x="354.3" y="610.3" class="st3" width="4.7" height="525.7"/>
			<rect x="359" y="610.3" class="st3" width="4.7" height="525.7"/>
			<rect x="363.7" y="610.3" class="st3" width="4.7" height="525.7"/>
			<rect x="368.4" y="610.3" class="st3" width="4.7" height="525.7"/>
			<rect x="373.2" y="610.3" class="st3" width="4.7" height="525.7"/>
			<rect x="377.9" y="610.3" class="st3" width="4.7" height="525.7"/>
			<rect x="382.6" y="610.3" class="st3" width="4.7" height="525.7"/>
			<rect x="387.3" y="610.3" class="st3" width="4.7" height="525.7"/>
			<rect x="392" y="610.3" class="st3" width="4.7" height="525.7"/>
			<rect x="396.7" y="610.3" class="st3" width="4.7" height="525.7"/>
			<rect x="401.5" y="610.3" class="st3" width="4.7" height="525.7"/>
			<rect x="406.2" y="610.3" class="st3" width="4.7" height="525.7"/>
			<rect x="410.9" y="610.3" class="st3" width="4.7" height="525.7"/>
			<rect x="415.6" y="610.3" class="st3" width="4.7" height="525.7"/>
			<rect x="420.3" y="610.3" class="st3" width="4.7" height="525.7"/>
			<rect x="425" y="610.3" class="st3" width="4.7" height="525.7"/>
			<rect x="429.8" y="610.3" class="st3" width="4.7" height="525.7"/>
			<rect x="434.5" y="610.3" class="st3" width="4.7" height="525.7"/>
			<rect x="439.2" y="610.3" class="st3" width="4.7" height="525.7"/>
			<rect x="443.9" y="610.3" class="st3" width="4.7" height="525.7"/>
			<rect x="448.6" y="610.3" class="st3" width="4.7" height="525.7"/>
			<rect x="453.3" y="610.3" class="st3" width="4.7" height="525.7"/>
			<rect x="458.1" y="610.3" class="st3" width="4.7" height="525.7"/>
			<rect x="462.8" y="610.3" class="st3" width="4.7" height="525.7"/>
			<rect x="467.5" y="610.3" class="st3" width="4.7" height="525.7"/>
			<rect x="472.2" y="610.3" class="st3" width="4.7" height="525.7"/>
			<rect x="476.9" y="610.3" class="st3" width="4.7" height="525.7"/>
			<rect x="481.6" y="610.3" class="st3" width="4.7" height="525.7"/>
			<rect x="486.4" y="610.3" class="st3" width="4.7" height="525.7"/>
			<rect x="491.1" y="610.3" class="st3" width="4.7" height="525.7"/>
			<rect x="495.8" y="610.3" class="st3" width="4.7" height="525.7"/>
			<rect x="500.5" y="610.3" class="st3" width="4.7" height="525.7"/>
			<rect x="505.2" y="610.3" class="st3" width="4.7" height="525.7"/>
			<rect x="510" y="610.3" class="st3" width="4.7" height="525.7"/>
			<rect x="514.7" y="610.3" class="st3" width="4.7" height="525.7"/>
			<rect x="519.4" y="610.3" class="st3" width="4.7" height="525.7"/>
			<rect x="524.1" y="610.3" class="st3" width="4.7" height="525.7"/>
			<rect x="528.8" y="610.3" class="st3" width="4.7" height="525.7"/>
			<rect x="533.5" y="610.3" class="st3" width="4.7" height="525.7"/>
			<rect x="538.3" y="610.3" class="st3" width="4.7" height="525.7"/>
			<rect x="543" y="610.3" class="st3" width="4.7" height="525.7"/>
			<rect x="547.7" y="610.3" class="st3" width="4.7" height="525.7"/>
			<rect x="552.4" y="610.3" class="st3" width="4.7" height="525.7"/>
			<rect x="557.1" y="610.3" class="st3" width="4.7" height="525.7"/>
			<rect x="561.8" y="610.3" class="st3" width="4.7" height="525.7"/>
			<rect x="566.6" y="610.3" class="st3" width="4.7" height="525.7"/>
			<rect x="571.3" y="610.3" class="st3" width="4.7" height="525.7"/>
			<rect x="576" y="610.3" class="st3" width="4.7" height="525.7"/>
			<rect x="580.7" y="610.3" class="st3" width="4.7" height="525.7"/>
			<rect x="585.4" y="610.3" class="st3" width="4.7" height="525.7"/>
			<rect x="590.1" y="610.3" class="st3" width="4.7" height="525.7"/>
			<rect x="594.9" y="610.3" class="st3" width="4.7" height="525.7"/>
			<rect x="599.6" y="610.3" class="st3" width="4.7" height="525.7"/>
			<rect x="604.3" y="610.3" class="st3" width="4.7" height="525.7"/>
			<rect x="609" y="610.3" class="st3" width="4.7" height="525.7"/>
			<rect x="613.7" y="610.3" class="st3" width="4.7" height="525.7"/>
			<rect x="618.5" y="610.3" class="st3" width="4.7" height="525.7"/>
			<rect x="623.2" y="610.3" class="st3" width="4.7" height="525.7"/>
			<rect x="627.9" y="610.3" class="st3" width="4.7" height="525.7"/>
			<rect x="632.6" y="610.3" class="st3" width="4.7" height="525.7"/>
			<rect x="637.3" y="610.3" class="st3" width="4.7" height="525.7"/>
			<rect x="642" y="610.3" class="st3" width="4.7" height="525.7"/>
			<rect x="646.8" y="610.3" class="st3" width="4.7" height="525.7"/>
			<rect x="651.5" y="610.3" class="st3" width="4.7" height="525.7"/>
			<rect x="656.2" y="610.3" class="st3" width="4.7" height="525.7"/>
			<rect x="660.9" y="610.3" class="st3" width="4.7" height="525.7"/>
			<rect x="665.6" y="610.3" class="st3" width="4.7" height="525.7"/>
			<rect x="670.3" y="610.3" class="st3" width="4.7" height="525.7"/>
			<rect x="675.1" y="610.3" class="st3" width="607.3" height="525.7"/>
		</g>
	</g>
	<g>
		<path class="st0" d="M1118.4,868.9c-14.9,4.5-31,5.3-46.6,3.5c-15.6-1.8-31-6-45.5-12.2c-3.6-1.7-7.2-3.3-10.7-5.1l-10.3-5.9
			l-9.7-6.7c-3.2-2.3-6.1-5-9.2-7.4c-11.9-10.4-21.9-22.6-29.9-36c9.5,12.4,20.2,23.6,32.2,33.3c12,9.7,25.2,17.7,39.3,23.7
			c14.1,6.1,28.9,10.4,44.1,12.8c3.8,0.6,7.6,0.9,11.5,1.4c3.8,0.2,7.7,0.6,11.5,0.5C1103,871,1110.7,870.3,1118.4,868.9z"/>
		<path class="st0" d="M1087,873.4c-5,0-10.1-0.3-15.2-0.9c-15.4-1.7-30.7-5.8-45.5-12.2c-1.2-0.6-2.4-1.2-3.6-1.7
			c-2.3-1.1-4.7-2.2-7-3.4l-10.3-5.9l-9.7-6.7c-2.2-1.6-4.3-3.3-6.3-5c-0.9-0.8-1.9-1.6-2.9-2.4c-11.6-10.1-21.7-22.2-29.9-36
			l0.2-0.1c9.7,12.7,20.5,23.8,32.2,33.2c12,9.7,25.2,17.6,39.3,23.7c13.9,6.1,28.7,10.4,44.1,12.8c2.3,0.4,4.6,0.6,6.9,0.9
			c1.5,0.2,3,0.3,4.6,0.5c1.4,0.1,2.7,0.1,4.1,0.2c2.4,0.2,5,0.3,7.4,0.3c7.1,0.2,14.6-0.4,23.1-1.9l0.1,0.2
			C1108.7,872,1098.1,873.4,1087,873.4z M957.9,800.9c8,13,17.7,24.4,28.7,34c1,0.8,1.9,1.6,2.9,2.4c2,1.7,4.1,3.5,6.3,5l9.7,6.7
			l10.3,5.8c2.3,1.2,4.7,2.3,7,3.4c1.2,0.6,2.4,1.1,3.6,1.7c14.8,6.3,30.1,10.4,45.4,12.2c15.6,1.8,31,0.9,44.5-2.9
			c-7.6,1.2-14.5,1.7-21,1.5c-2.5,0-5-0.1-7.5-0.3c-1.3-0.1-2.7-0.2-4.1-0.2c-1.5-0.2-3.1-0.4-4.6-0.5c-2.3-0.3-4.6-0.5-6.9-0.9
			c-15.4-2.5-30.2-6.8-44.2-12.9c-14.1-6-27.4-14-39.4-23.7C977.6,823.5,967.2,812.9,957.9,800.9z"/>
	</g>
	<g>
		<g>
			<g>
				<path class="st0" d="M669.7,985.5c-0.1,0-0.1,0-0.2,0c-3.5-0.1-6.4-2.8-6.6-6.3L601.3,148l-97.4,586.5c-0.5,3.3-3.4,5.7-6.7,5.7
					c0,0,0,0,0,0c-3.3,0-6.2-2.4-6.7-5.7l-43.9-259.4L417.1,541c-1.1,2.5-3.5,4-6.2,4H70.3v-13.6h336.2l36.8-82.3
					c1.2-2.7,4.1-4.4,7.1-4c3,0.4,5.4,2.7,5.9,5.6l40.9,241.5L597.2,89.8c0.6-3.4,3.6-5.8,7-5.7c3.4,0.2,6.2,2.9,6.5,6.3l60.8,819.4
					l61.9-497.3c0.4-3.4,3.3-6,6.8-6c0,0,0,0,0,0c3.5,0,6.3,2.6,6.7,6l29.4,258.8l29.8-136.9c0.7-3.1,3.5-5.4,6.7-5.4h1078.5v13.6
					H818.3l-37.4,171.7c-0.7,3.3-3.6,5.6-7,5.4c-3.3-0.2-6-2.7-6.4-6l-27.6-242.9l-63.3,508.6C676.1,982.9,673.1,985.5,669.7,985.5z
					"/>
			</g>
		</g>
		<g>
			<circle class="st0" cx="1893.6" cy="535.9" r="18.2"/>
		</g>
	</g>
	<g>
		<circle class="st0" cx="74.8" cy="538.2" r="18.2"/>
	</g>
	<g>
		<path class="st0" d="M940.3,402.2v36.5h-3.4c-2.6-9.5-7.4-16.8-14.4-21.9c-7-5.1-15-7.6-23.9-7.6c-7.5,0-14.3,1.9-20.5,5.7
			c-6.2,3.8-10.8,8.7-13.6,14.8c-3.7,7.8-5.5,16.5-5.5,26.1c0,9.4,1.3,18,4,25.7c2.7,7.7,6.9,13.6,12.7,17.5
			c5.8,4,13.2,5.9,22.4,5.9c7.5,0,14.4-1.4,20.6-4.3c6.3-2.9,12.8-7.9,19.8-15v9.1c-6.7,6.2-13.7,10.6-20.9,13.4
			c-7.2,2.8-15.7,4.2-25.4,4.2c-12.7,0-24-2.3-33.9-6.8c-9.9-4.5-17.5-11-22.9-19.4c-5.4-8.4-8.1-17.4-8.1-26.9
			c0-10,3-19.6,8.9-28.6c6-9,14-16,24.1-21s20.9-7.5,32.3-7.5c8.4,0,17.3,1.6,26.6,4.8c5.4,1.9,8.8,2.8,10.3,2.8
			c1.9,0,3.5-0.6,4.9-1.8c1.4-1.2,2.3-3.1,2.7-5.8H940.3z"/>
	</g>
	<g>
		<path class="st0" d="M1025.2,479.9H983l-5,10.2c-1.6,3.4-2.5,6.2-2.5,8.5c0,2.9,1.3,5.1,4.1,6.5c1.6,0.8,5.5,1.4,11.7,1.9v2.9
			h-39.7V507c4.3-0.6,7.8-2.1,10.6-4.7c2.8-2.6,6.2-7.9,10.2-15.9l42.7-84h1.7l43,86.3c4.1,8.2,7.5,13.3,10.1,15.4
			c2,1.6,4.8,2.5,8.5,2.8v2.9h-57.8V507h2.4c4.6,0,7.9-0.6,9.8-1.7c1.3-0.8,1.9-2,1.9-3.6c0-0.9-0.2-1.9-0.5-2.9
			c-0.1-0.5-1-2.4-2.6-5.8L1025.2,479.9z M1022.2,474.2l-17.8-36.2l-18.3,36.2H1022.2z"/>
	</g>
	<g>
		<path class="st0" d="M1166.3,474l32.4-69.4h48.6v2.9h-3.9c-3.5,0-6.3,0.5-8.5,1.6c-1.5,0.7-2.6,1.9-3.5,3.6c-0.6,1.2-1,4.5-1,9.7
			v69.4c0,5.4,0.3,8.7,1,10.1c0.6,1.3,2,2.5,4,3.5c2,1,4.7,1.5,8,1.5h3.9v2.9H1185V507h3.9c3.5,0,6.3-0.5,8.5-1.6
			c1.5-0.7,2.6-2,3.5-3.7c0.6-1.2,1-4.5,1-9.8v-78l-45.8,96h-2.1l-46.5-95.3v74.1c0,5.2,0.1,8.4,0.4,9.5c0.8,2.6,2.4,4.7,5,6.3
			c2.6,1.6,6.6,2.4,12,2.4v2.9H1084V507h1.2c2.6,0.1,5.1-0.3,7.4-1.1c2.3-0.8,4-1.9,5.2-3.2c1.2-1.3,2.1-3.2,2.7-5.7
			c0.1-0.6,0.2-3.2,0.2-7.9v-66.6c0-5.3-0.3-8.7-1-10c-0.6-1.3-2-2.5-4-3.5c-2-1-4.7-1.5-8-1.5h-3.8v-2.9h48.8L1166.3,474z"/>
	</g>
	<g>
		<path class="st0" d="M1299.7,410.7v42.8h2.4c7.6,0,13.1-2.1,16.5-6.3c3.4-4.2,5.6-10.4,6.5-18.5h3.3v55.1h-3.3
			c-0.7-6-2.2-10.9-4.4-14.7c-2.3-3.8-4.9-6.4-7.9-7.7c-3-1.3-7.3-2-13-2V489c0,5.8,0.3,9.3,0.8,10.6c0.6,1.3,1.6,2.4,3.1,3.2
			c1.5,0.8,4,1.2,7.4,1.2h7.1c11.2,0,20.1-2.3,26.8-6.8c6.7-4.6,11.5-11.5,14.5-20.8h3.3l-5.4,33.4h-103.2V507h4
			c3.5,0,6.3-0.5,8.4-1.6c1.5-0.7,2.7-2,3.5-3.7c0.6-1.2,1-4.5,1-9.8v-69.2c0-4.8-0.1-7.7-0.4-8.8c-0.6-1.8-1.7-3.2-3.3-4.2
			c-2.2-1.4-5.3-2.2-9.2-2.2h-4v-2.9h99.9v31.1h-3.3c-1.7-7.6-4.1-13.1-7.2-16.4c-3.1-3.3-7.4-5.7-13.1-7.3
			c-3.3-0.9-9.4-1.4-18.5-1.4H1299.7z"/>
	</g>
	<g>
		<path class="st0" d="M1484.6,404.6v28.5h-3.2c-1.9-6.6-4-11.3-6.3-14.2c-2.3-2.9-5.4-5.2-9.4-6.9c-2.2-0.9-6.1-1.4-11.7-1.4h-8.9
			v81.2c0,5.4,0.3,8.7,1,10.1c0.7,1.3,2,2.5,4,3.5c2,1,4.7,1.5,8.1,1.5h4v2.9h-62.5V507h4c3.5,0,6.3-0.5,8.4-1.6
			c1.5-0.7,2.7-2,3.6-3.7c0.6-1.2,1-4.5,1-9.8v-81.2h-8.6c-8,0-13.9,1.5-17.5,4.5c-5.1,4.2-8.3,10.2-9.7,17.9h-3.3v-28.5H1484.6z"/>
	</g>
	<g>
		<path class="st0" d="M1617.6,402.2l1,35.1h-3.6c-1.7-8.8-5.9-15.9-12.5-21.2c-6.7-5.4-13.9-8-21.6-8c-6,0-10.7,1.4-14.2,4.2
			c-3.5,2.8-5.2,6.1-5.2,9.7c0,2.3,0.6,4.4,1.8,6.2c1.7,2.4,4.4,4.8,8.2,7.2c2.8,1.7,9.1,4.7,19.1,9.1c14,6.1,23.4,11.8,28.3,17.2
			c4.8,5.4,7.2,11.5,7.2,18.5c0,8.8-3.9,16.4-11.7,22.7c-7.8,6.3-17.7,9.5-29.6,9.5c-3.8,0-7.3-0.3-10.7-1
			c-3.3-0.7-7.5-1.9-12.6-3.8c-2.8-1-5.1-1.6-7-1.6c-1.5,0-3.1,0.5-4.8,1.6c-1.7,1-3.1,2.6-4.1,4.7h-3.3v-39.7h3.3
			c2.6,11.2,7.6,19.7,14.9,25.6c7.4,5.9,15.3,8.8,23.8,8.8c6.6,0,11.8-1.6,15.7-4.7c3.9-3.2,5.9-6.8,5.9-11c0-2.5-0.7-4.9-2.2-7.2
			c-1.5-2.3-3.8-4.5-6.8-6.6c-3.1-2.1-8.5-4.8-16.2-8.2c-10.9-4.7-18.7-8.7-23.4-12c-4.8-3.3-8.4-7-11-11.1
			c-2.6-4.1-3.8-8.6-3.8-13.5c0-8.4,3.5-15.5,10.5-21.4c7-5.9,15.8-8.8,26.4-8.8c3.9,0,7.6,0.4,11.3,1.2c2.8,0.6,6.1,1.8,10.1,3.5
			c4,1.7,6.7,2.5,8.3,2.5c1.5,0,2.7-0.4,3.6-1.2c0.9-0.8,1.7-2.8,2.5-6H1617.6z"/>
	</g>
	<g>
		<path class="st0" d="M1708.2,479.9H1666l-5,10.2c-1.6,3.4-2.5,6.2-2.5,8.5c0,2.9,1.3,5.1,4.1,6.5c1.6,0.8,5.5,1.4,11.7,1.9v2.9
			h-39.7V507c4.3-0.6,7.8-2.1,10.6-4.7c2.8-2.6,6.2-7.9,10.2-15.9l42.7-84h1.7l43.1,86.3c4.1,8.2,7.5,13.3,10.1,15.4
			c2,1.6,4.8,2.5,8.5,2.8v2.9h-57.8V507h2.4c4.6,0,7.9-0.6,9.8-1.7c1.3-0.8,1.9-2,1.9-3.6c0-0.9-0.2-1.9-0.5-2.9
			c-0.1-0.5-1-2.4-2.6-5.8L1708.2,479.9z M1705.2,474.2l-17.8-36.2l-18.3,36.2H1705.2z"/>
	</g>
	<g>
		<path class="st0" d="M1848.1,402.2l1,35.1h-3.6c-1.7-8.8-5.9-15.9-12.5-21.2c-6.7-5.4-13.9-8-21.6-8c-6,0-10.7,1.4-14.2,4.2
			c-3.5,2.8-5.2,6.1-5.2,9.7c0,2.3,0.6,4.4,1.8,6.2c1.7,2.4,4.4,4.8,8.2,7.2c2.8,1.7,9.1,4.7,19.1,9.1c14,6.1,23.4,11.8,28.3,17.2
			c4.8,5.4,7.2,11.5,7.2,18.5c0,8.8-3.9,16.4-11.7,22.7c-7.8,6.3-17.7,9.5-29.6,9.5c-3.8,0-7.3-0.3-10.7-1
			c-3.3-0.7-7.5-1.9-12.6-3.8c-2.8-1-5.1-1.6-7-1.6c-1.5,0-3.1,0.5-4.8,1.6c-1.7,1-3.1,2.6-4.1,4.7h-3.3v-39.7h3.3
			c2.6,11.2,7.6,19.7,14.9,25.6c7.4,5.9,15.3,8.8,23.8,8.8c6.6,0,11.8-1.6,15.7-4.7c3.9-3.2,5.9-6.8,5.9-11c0-2.5-0.7-4.9-2.2-7.2
			c-1.5-2.3-3.8-4.5-6.8-6.6c-3.1-2.1-8.5-4.8-16.2-8.2c-10.9-4.7-18.7-8.7-23.4-12c-4.8-3.3-8.4-7-11-11.1
			c-2.6-4.1-3.8-8.6-3.8-13.5c0-8.4,3.5-15.5,10.5-21.4c7-5.9,15.8-8.8,26.4-8.8c3.9,0,7.6,0.4,11.3,1.2c2.8,0.6,6.1,1.8,10.1,3.5
			c4,1.7,6.7,2.5,8.3,2.5c1.5,0,2.7-0.4,3.6-1.2c0.9-0.8,1.7-2.8,2.5-6H1848.1z"/>
	</g>
	<g>
		<path class="st0" d="M870.4,594.2h-18.1v15.5h20.2v4.6h-26.2v-42.9h25.1v4.6h-19.1v13.5h18.1V594.2z"/>
		<path class="st0" d="M880,569.1h6.1v45.1H880V569.1z"/>
		<path class="st0" d="M929.4,614.3l-0.5-3.9h-0.2c-1.9,2.4-5.5,4.6-10.2,4.6c-6.8,0-10.2-4.4-10.2-8.8c0-7.4,7.2-11.5,20.1-11.4
			v-0.6c0-2.5-0.8-7.1-7.6-7.1c-3.1,0-6.4,0.9-8.7,2.3l-1.4-3.7c2.8-1.7,6.8-2.7,11-2.7c10.2,0,12.7,6.4,12.7,12.6v11.5
			c0,2.7,0.1,5.3,0.6,7.4H929.4z M928.5,598.6c-6.6-0.1-14.2,1-14.2,6.9c0,3.6,2.6,5.3,5.7,5.3c4.3,0,7.1-2.5,8.1-5.2
			c0.2-0.6,0.3-1.2,0.3-1.8V598.6z"/>
		<path class="st0" d="M944.2,569.1h6.1v45.1h-6.1V569.1z"/>
		<path class="st0" d="M967.3,574.9c0.1,1.9-1.4,3.4-3.9,3.4c-2.1,0-3.7-1.5-3.7-3.4c0-2,1.6-3.5,3.8-3.5
			C965.8,571.4,967.3,572.9,967.3,574.9z M960.5,614.3v-30.8h6.1v30.8H960.5z"/>
		<path class="st0" d="M979,583.5l6.6,17.3c1.1,2.8,2,5.3,2.7,7.9h0.2c0.8-2.5,1.7-5.1,2.8-7.9l6.5-17.3h6.4L991,614.3h-5.8
			l-12.7-30.8H979z"/>
		<path class="st0" d="M1016.6,574.9c0.1,1.9-1.5,3.4-3.9,3.4c-2.1,0-3.7-1.5-3.7-3.4c0-2,1.6-3.5,3.8-3.5
			C1015.2,571.4,1016.6,572.9,1016.6,574.9z M1009.9,614.3v-30.8h6.1v30.8H1009.9z"/>
		<path class="st0" d="M1056.2,598.7c0,11.4-8.6,16.3-16.6,16.3c-9,0-16-6.1-16-15.8c0-10.3,7.3-16.3,16.6-16.3
			C1049.8,582.8,1056.2,589.2,1056.2,598.7z M1029.7,599c0,6.7,4.2,11.8,10.1,11.8c5.8,0,10.1-5,10.1-12c0-5.2-2.8-11.8-10-11.8
			C1032.8,587,1029.7,593.1,1029.7,599z"/>
		<path class="st0" d="M1085.3,574.9c0.1,1.9-1.5,3.4-3.9,3.4c-2.1,0-3.7-1.5-3.7-3.4c0-2,1.6-3.5,3.8-3.5
			C1083.9,571.4,1085.3,572.9,1085.3,574.9z M1078.5,614.3v-30.8h6.1v30.8H1078.5z"/>
		<path class="st0" d="M1123.5,569.1v37.2c0,2.7,0.1,5.8,0.3,7.9h-5.5l-0.3-5.3h-0.1c-1.9,3.4-5.9,6-11.4,6
			c-8.1,0-14.3-6.3-14.3-15.6c-0.1-10.2,6.8-16.5,15-16.5c5.1,0,8.6,2.2,10.1,4.7h0.1v-18.4H1123.5z M1117.5,596
			c0-0.7-0.1-1.7-0.3-2.4c-0.9-3.6-4.2-6.5-8.8-6.5c-6.3,0-10,5.1-10,11.9c0,6.2,3.3,11.4,9.9,11.4c4.1,0,7.8-2.5,8.9-6.7
			c0.2-0.8,0.3-1.5,0.3-2.4V596z"/>
		<path class="st0" d="M1137,599.9c0.1,7.6,5.4,10.7,11.5,10.7c4.3,0,7-0.7,9.3-1.6l1,4c-2.1,0.9-5.8,1.9-11.1,1.9
			c-10.3,0-16.4-6.2-16.4-15.5s5.9-16.6,15.7-16.6c10.9,0,13.8,8.8,13.8,14.5c0,1.1-0.1,2-0.2,2.6H1137z M1154.8,595.9
			c0.1-3.6-1.6-9.1-8.4-9.1c-6.1,0-8.8,5.2-9.3,9.1H1154.8z"/>
		<path class="st0" d="M1186.7,614.3l-0.5-3.9h-0.2c-1.9,2.4-5.5,4.6-10.2,4.6c-6.8,0-10.2-4.4-10.2-8.8c0-7.4,7.2-11.5,20.1-11.4
			v-0.6c0-2.5-0.8-7.1-7.6-7.1c-3.1,0-6.4,0.9-8.7,2.3l-1.4-3.7c2.8-1.7,6.8-2.7,11-2.7c10.2,0,12.7,6.4,12.7,12.6v11.5
			c0,2.7,0.1,5.3,0.6,7.4H1186.7z M1185.8,598.6c-6.6-0.1-14.2,1-14.2,6.9c0,3.6,2.6,5.3,5.7,5.3c4.3,0,7.1-2.5,8.1-5.2
			c0.2-0.6,0.3-1.2,0.3-1.8V598.6z"/>
		<path class="st0" d="M1201.5,569.1h6.1v45.1h-6.1V569.1z"/>
		<path class="st0" d="M1232.4,593.6c0-3.9-0.1-7.1-0.3-10h5.5l0.3,5.3h0.1c2.5-3.8,6.4-6,11.9-6c8.1,0,14.2,6.3,14.2,15.6
			c0,11.1-7.3,16.5-15.2,16.5c-4.4,0-8.3-1.8-10.3-4.8h-0.1v16.7h-6V593.6z M1238.4,601.8c0,0.8,0.1,1.6,0.3,2.3
			c1.1,3.9,4.8,6.5,9.1,6.5c6.4,0,10.1-4.8,10.1-11.9c0-6.2-3.5-11.4-9.9-11.4c-4.1,0-8,2.7-9.2,6.9c-0.2,0.7-0.4,1.5-0.4,2.3V601.8
			z"/>
		<path class="st0" d="M1290.2,614.3l-0.5-3.9h-0.2c-1.9,2.4-5.5,4.6-10.2,4.6c-6.8,0-10.2-4.4-10.2-8.8c0-7.4,7.2-11.5,20.1-11.4
			v-0.6c0-2.5-0.8-7.1-7.6-7.1c-3.1,0-6.4,0.9-8.7,2.3l-1.4-3.7c2.8-1.7,6.8-2.7,11-2.7c10.2,0,12.7,6.4,12.7,12.6v11.5
			c0,2.7,0.1,5.3,0.6,7.4H1290.2z M1289.3,598.6c-6.6-0.1-14.2,1-14.2,6.9c0,3.6,2.6,5.3,5.7,5.3c4.3,0,7.1-2.5,8.1-5.2
			c0.2-0.6,0.3-1.2,0.3-1.8V598.6z"/>
		<path class="st0" d="M1304.9,593.1c0-3.6-0.1-6.7-0.3-9.6h5.3l0.2,6h0.3c1.5-4.1,5.2-6.7,9.3-6.7c0.7,0,1.2,0.1,1.7,0.2v5.3
			c-0.6-0.1-1.2-0.2-2.1-0.2c-4.3,0-7.3,3-8.1,7.2c-0.1,0.8-0.3,1.7-0.3,2.6v16.4h-6V593.1z"/>
		<path class="st0" d="M1345.7,614.3l-0.5-3.9h-0.2c-1.9,2.4-5.5,4.6-10.2,4.6c-6.8,0-10.2-4.4-10.2-8.8c0-7.4,7.2-11.5,20.1-11.4
			v-0.6c0-2.5-0.8-7.1-7.6-7.1c-3.1,0-6.4,0.9-8.7,2.3l-1.4-3.7c2.8-1.7,6.8-2.7,11-2.7c10.2,0,12.7,6.4,12.7,12.6v11.5
			c0,2.7,0.1,5.3,0.6,7.4H1345.7z M1344.8,598.6c-6.6-0.1-14.2,1-14.2,6.9c0,3.6,2.6,5.3,5.7,5.3c4.3,0,7.1-2.5,8.1-5.2
			c0.2-0.6,0.3-1.2,0.3-1.8V598.6z"/>
		<path class="st0" d="M1378.5,599.9c0.1,7.6,5.4,10.7,11.5,10.7c4.3,0,7-0.7,9.3-1.6l1,4c-2.1,0.9-5.8,1.9-11.1,1.9
			c-10.3,0-16.4-6.2-16.4-15.5s5.9-16.6,15.7-16.6c10.9,0,13.8,8.8,13.8,14.5c0,1.1-0.1,2-0.2,2.6H1378.5z M1396.3,595.9
			c0.1-3.6-1.6-9.1-8.4-9.1c-6.1,0-8.8,5.2-9.3,9.1H1396.3z"/>
		<path class="st0" d="M1432.4,609.5h-0.1c-1.8,3.1-5.5,5.5-10.9,5.5c-7.8,0-14.2-6.2-14.2-15.6c0-11.5,8.1-16.6,15.1-16.6
			c5.2,0,8.6,2.4,10.3,5.3h0.1l0.2-4.6h5.7c-0.1,2.6-0.2,5.3-0.2,8.5v34.9h-6.1V609.5z M1432.4,596c0-0.8-0.1-1.7-0.3-2.4
			c-0.9-3.4-4.1-6.4-8.7-6.4c-6.3,0-10.1,4.9-10.1,11.8c0,6.1,3.2,11.4,9.9,11.4c3.9,0,7.3-2.2,8.7-6.1c0.3-0.8,0.5-1.8,0.5-2.7V596
			z"/>
		<path class="st0" d="M1476.5,605.9c0,3.2,0.1,6,0.3,8.4h-5.4l-0.3-5h-0.1c-1.6,2.5-5.1,5.7-11,5.7c-5.2,0-11.5-2.7-11.5-13.5v-18
			h6.1v17c0,5.8,1.9,9.8,7.5,9.8c4.1,0,6.9-2.6,8-5.1c0.3-0.8,0.6-1.8,0.6-2.9v-18.9h6.1V605.9z"/>
		<path class="st0" d="M1493.3,574.9c0.1,1.9-1.5,3.4-3.9,3.4c-2.1,0-3.7-1.5-3.7-3.4c0-2,1.6-3.5,3.8-3.5
			C1491.9,571.4,1493.3,572.9,1493.3,574.9z M1486.5,614.3v-30.8h6.1v30.8H1486.5z"/>
		<path class="st0" d="M1502.7,593.6c0-3.9-0.1-7.1-0.3-10h5.5l0.3,5.3h0.1c2.5-3.8,6.4-6,11.9-6c8.1,0,14.2,6.3,14.2,15.6
			c0,11.1-7.3,16.5-15.2,16.5c-4.4,0-8.3-1.8-10.3-4.8h-0.1v16.7h-6V593.6z M1508.7,601.8c0,0.8,0.1,1.6,0.3,2.3
			c1.1,3.9,4.8,6.5,9.1,6.5c6.4,0,10.1-4.8,10.1-11.9c0-6.2-3.5-11.4-9.9-11.4c-4.1,0-8,2.7-9.2,6.9c-0.2,0.7-0.4,1.5-0.4,2.3V601.8
			z"/>
		<path class="st0" d="M1572.2,598.7c0,11.4-8.6,16.3-16.6,16.3c-9,0-16-6.1-16-15.8c0-10.3,7.3-16.3,16.6-16.3
			C1565.7,582.8,1572.2,589.2,1572.2,598.7z M1545.7,599c0,6.7,4.2,11.8,10.1,11.8c5.8,0,10.1-5,10.1-12c0-5.2-2.8-11.8-10-11.8
			C1548.8,587,1545.7,593.1,1545.7,599z"/>
		<path class="st0" d="M1579,608.6c1.8,1.1,5,2.2,8,2.2c4.4,0,6.5-2,6.5-4.6c0-2.7-1.7-4.1-6.2-5.7c-6-2-8.8-5-8.8-8.7
			c0-5,4.3-9,11.5-9c3.4,0,6.4,0.9,8.2,1.9l-1.5,4.1c-1.3-0.8-3.7-1.8-6.8-1.8c-3.6,0-5.6,1.9-5.6,4.2c0,2.5,2,3.7,6.4,5.2
			c5.8,2,8.8,4.7,8.8,9.3c0,5.4-4.6,9.2-12.5,9.2c-3.7,0-7-0.8-9.4-2.1L1579,608.6z"/>
		<path class="st0" d="M1621.8,591.8c0-3.2-0.1-5.8-0.3-8.3h5.3l0.3,5h0.2c1.9-2.9,5-5.7,10.5-5.7c4.6,0,8,2.5,9.5,6.2h0.1
			c1-1.7,2.3-3.1,3.7-4c2-1.4,4.2-2.2,7.4-2.2c4.4,0,11,2.7,11,13.4v18.1h-5.9v-17.4c0-5.9-2.3-9.5-7.2-9.5c-3.5,0-6.1,2.4-7.2,5.1
			c-0.3,0.8-0.5,1.8-0.5,2.8v19h-5.9v-18.4c0-4.9-2.3-8.5-7-8.5c-3.8,0-6.6,2.8-7.5,5.6c-0.3,0.8-0.5,1.8-0.5,2.7v18.6h-5.9V591.8z"
			/>
		<path class="st0" d="M1682.8,599.9c0.1,7.6,5.4,10.7,11.5,10.7c4.3,0,7-0.7,9.3-1.6l1,4c-2.1,0.9-5.8,1.9-11.1,1.9
			c-10.3,0-16.4-6.2-16.4-15.5s5.9-16.6,15.7-16.6c10.9,0,13.8,8.8,13.8,14.5c0,1.1-0.1,2-0.2,2.6H1682.8z M1700.6,595.9
			c0.1-3.6-1.6-9.1-8.4-9.1c-6.1,0-8.8,5.2-9.3,9.1H1700.6z M1702.1,570.2l-8.4,9.1h-4.3l6.1-9.1H1702.1z"/>
		<path class="st0" d="M1742.8,569.1v37.2c0,2.7,0.1,5.8,0.3,7.9h-5.5l-0.3-5.3h-0.1c-1.9,3.4-5.9,6-11.4,6
			c-8.1,0-14.3-6.3-14.3-15.6c-0.1-10.2,6.8-16.5,15-16.5c5.1,0,8.6,2.2,10.1,4.7h0.1v-18.4H1742.8z M1736.8,596
			c0-0.7-0.1-1.7-0.3-2.4c-0.9-3.6-4.2-6.5-8.8-6.5c-6.3,0-10,5.1-10,11.9c0,6.2,3.3,11.4,9.9,11.4c4.1,0,7.8-2.5,8.9-6.7
			c0.2-0.8,0.3-1.5,0.3-2.4V596z"/>
		<path class="st0" d="M1759.7,574.9c0.1,1.9-1.5,3.4-3.9,3.4c-2.1,0-3.7-1.5-3.7-3.4c0-2,1.6-3.5,3.8-3.5
			C1758.2,571.4,1759.7,572.9,1759.7,574.9z M1752.9,614.3v-30.8h6.1v30.8H1752.9z"/>
		<path class="st0" d="M1792.9,613.1c-1.6,0.8-5.1,1.8-9.6,1.8c-10.1,0-16.6-6.3-16.6-15.7c0-9.5,7-16.3,17.9-16.3
			c3.6,0,6.8,0.8,8.4,1.6l-1.4,4.3c-1.4-0.8-3.7-1.5-7-1.5c-7.7,0-11.8,5.2-11.8,11.6c0,7.1,5,11.5,11.6,11.5c3.5,0,5.7-0.8,7.5-1.5
			L1792.9,613.1z"/>
		<path class="st0" d="M1829.8,598.7c0,11.4-8.6,16.3-16.6,16.3c-9,0-16-6.1-16-15.8c0-10.3,7.3-16.3,16.6-16.3
			C1823.3,582.8,1829.8,589.2,1829.8,598.7z M1803.3,599c0,6.7,4.2,11.8,10.1,11.8c5.8,0,10.1-5,10.1-12c0-5.2-2.8-11.8-10-11.8
			C1806.4,587,1803.3,593.1,1803.3,599z"/>
		<path class="st0" d="M1836.7,608.6c1.8,1.1,5,2.2,8,2.2c4.4,0,6.5-2,6.5-4.6c0-2.7-1.7-4.1-6.2-5.7c-6-2-8.8-5-8.8-8.7
			c0-5,4.3-9,11.5-9c3.4,0,6.4,0.9,8.2,1.9l-1.5,4.1c-1.3-0.8-3.7-1.8-6.8-1.8c-3.6,0-5.6,1.9-5.6,4.2c0,2.5,2,3.7,6.4,5.2
			c5.8,2,8.8,4.7,8.8,9.3c0,5.4-4.6,9.2-12.5,9.2c-3.7,0-7-0.8-9.4-2.1L1836.7,608.6z"/>
	</g>
</g>
</svg>
