<?xml version="1.0" encoding="utf-8"?>
<!-- Generator: Adobe Illustrator 24.0.2, SVG Export Plug-In . SVG Version: 6.00 Build 0)  -->
<svg version="1.1"
	 id="svg1148" inkscape:version="0.48.4 r9939" sodipodi:docname="cautin_dibujo_colorear.svg" sodipodi:version="0.32" xmlns:cc="http://creativecommons.org/ns#" xmlns:dc="http://purl.org/dc/elements/1.1/" xmlns:inkscape="http://www.inkscape.org/namespaces/inkscape" xmlns:rdf="http://www.w3.org/1999/02/22-rdf-syntax-ns#" xmlns:sodipodi="http://sodipodi.sourceforge.net/DTD/sodipodi-0.dtd" xmlns:svg="http://www.w3.org/2000/svg"
	 xmlns="http://www.w3.org/2000/svg" xmlns:xlink="http://www.w3.org/1999/xlink" x="0px" y="0px" viewBox="0 0 709.7 414.6"
	 style="enable-background:new 0 0 709.7 414.6;" xml:space="preserve">
<style type="text/css">
	.st0{fill:none;stroke:#000000;stroke-width:2;stroke-miterlimit:10;}
</style>
<title  id="title3027">cautin dibujo colorear</title>
<sodipodi:namedview  bordercolor="#666666" borderopacity="1.0" id="base" inkscape:current-layer="layer1" inkscape:cx="50.899787" inkscape:cy="708.37869" inkscape:pageopacity="0.0" inkscape:pageshadow="2" inkscape:window-height="719" inkscape:window-maximized="1" inkscape:window-width="1024" inkscape:window-x="0" inkscape:window-y="0" inkscape:zoom="0.61399264" pagecolor="#ffffff" showgrid="false">
	</sodipodi:namedview>
<g id="layer1" inkscape:groupmode="layer" inkscape:label="Layer 1">
	<g id="g4583">
		<g id="path2426">
			<path class="st0" d="M50.5,364.3h-0.6c-4.8,0-12.7-1.1-20.6-2.8c-4.5-1-7.9-1.9-10.7-3c-1.8-0.7-3.2-1.3-4.4-2.1
				c-1.5-0.9-2.8-1.9-3.9-3.9c-0.6-1.2-1.4-2.6-2.3-4c-4.3-7.3-10.8-18.3-6.8-34.4c0.5-1.8,0.9-3.5,1.2-5.1
				c1.2-4.9,2.2-9.1,3.7-13.2c2.2-5.7,5.6-10.6,10.9-15.9c9.2-9.2,15.6-12,31.4-15.9c2.1-0.5,5.1-1.5,8.5-2.6c2.3-0.8,5-1.6,7.7-2.4
				c6.5-2,13.3-3.8,19.7-3.8h132.4c6.7,0,14.1-0.7,21.3-1.4c7.3-0.7,14.9-1.5,21.9-1.5c4.2,0,13.7-0.9,22.3-2.3
				c4.6-0.8,8.7-1.7,11.7-2.6c2.3-0.7,4.2-1.6,5-2c0.1,0,0.2-0.1,0.3-0.1c1.5-1.5,3-3.1,4.7-4.8c6.7-7,14.3-15,22.6-19.1
				c14.2-7.1,20.5-12.3,30.2-22c5.3-5.3,8-9.1,10.1-14.2c1.7-4.1,2.9-9.2,4.7-16.3c0.3-1.4,0.7-2.8,1.1-4.3
				c1.3-5.2,2.4-13.8,2.6-20.8c0.1-3.9,0-7.4-0.4-10.1c-0.3-2.6-1.1-4.5-1.3-4.7l-0.4-0.5l0.5-0.3l8.3-6.4l0.4,0.5
				c2.4,3,3,6.5,3.4,10c0.5,3.4,0.6,7.4,0.5,12c-0.2,8-1.4,16.9-2.9,23.1c-0.5,1.8-0.9,3.6-1.3,5.2c-1.6,6.7-2.9,12-4.9,16.9
				c-2.6,6.3-6.4,11.8-12.5,17.9c-11.4,11.4-19.4,17.2-33.1,24.1c-5.6,2.8-13.5,10.8-20.4,17.8c-1.4,1.4-2.8,2.8-4.1,4.1
				c-2.8,2.8-5.9,3.7-9.9,4.9c-3.5,1-7.7,2-13,2.9c-8.8,1.5-18.5,2.5-24.2,2.5c-5.9,0-12.6,0.6-19.6,1.3c-7.7,0.8-15.7,1.5-23.6,1.5
				H84.4c-3.7,0-9.2,1.1-16.5,3.3c-2.4,0.7-4.7,1.5-6.9,2.2c-3.5,1.2-6.9,2.2-9.8,3c-15.2,3.8-17.9,4.7-26.2,12.9
				c-5,5-6.9,8.4-8.4,12.1c-1.2,3-2.1,6.7-3.2,11.4c-0.4,1.7-0.8,3.5-1.3,5.5c-2.9,11.7,0.9,18.2,5,25c1,1.6,2,3.3,2.9,5.1
				c0,0,0.1,0,0.1,0.1c0.4,0.3,1.3,0.7,2.5,1.1c2.3,0.9,5.5,1.8,9.1,2.5c6.8,1.5,15.1,2.5,18.3,2.5h0.6L50.5,364.3L50.5,364.3z
				 M84.4,256.5c-6.2,0-13,1.8-19.4,3.7c-2.6,0.8-5.3,1.7-7.6,2.4c-3.4,1.1-6.4,2.1-8.6,2.6c-15.5,3.9-21.7,6.5-30.8,15.6
				c-5.2,5.2-8.5,10-10.6,15.5c-1.5,4-2.5,8-3.7,13c-0.4,1.6-0.8,3.3-1.2,5.1c-3.9,15.5,2.5,26.3,6.7,33.4c0.9,1.5,1.7,2.9,2.3,4.1
				c0.9,1.8,2.1,2.6,3.4,3.4c1.2,0.7,2.4,1.3,4.1,1.9c2.7,1,6.1,1.9,10.5,2.9c7.5,1.6,14.9,2.6,19.7,2.7v-8.6
				c-3.7-0.1-11.4-1.1-17.9-2.5c-3.6-0.8-6.9-1.7-9.3-2.6c-1.1-0.4-2.1-0.9-2.7-1.2c-0.2-0.1-0.4-0.3-0.6-0.5
				c-0.9-1.7-1.9-3.4-2.9-5c-4.2-7.1-8.2-13.7-5.1-25.9c0.5-2,0.9-3.8,1.3-5.5c1.1-4.7,2-8.5,3.2-11.6c1.8-4.6,4.1-8,8.7-12.6
				c8.7-8.7,11.9-9.5,26.8-13.3c2.8-0.7,6.2-1.8,9.7-2.9c2.2-0.7,4.6-1.5,6.9-2.2c7.4-2.2,13.1-3.4,16.9-3.4h132.4
				c7.8,0,15.7-0.8,23.4-1.5c7.1-0.7,13.7-1.3,19.7-1.3c5.6,0,15.2-1,24-2.5c5.3-0.9,9.5-1.8,12.9-2.8c3.8-1.1,6.8-2,9.4-4.6
				c1.3-1.3,2.7-2.7,4.1-4.1c7-7.1,14.9-15.2,20.7-18.1c13.6-6.8,21.5-12.6,32.8-23.9c6-6,9.7-11.3,12.2-17.5
				c2-4.9,3.3-10.1,4.9-16.7c0.4-1.6,0.8-3.4,1.3-5.2c1.5-6.2,2.6-14.9,2.9-22.8c0.1-4.5,0-8.4-0.5-11.8c-0.4-3.3-1-6.2-2.8-8.9
				l-6.9,5.4c0.4,0.9,0.9,2.6,1.2,4.7c0.4,2.8,0.5,6.4,0.4,10.4c-0.2,7.1-1.3,15.8-2.6,21c-0.4,1.5-0.7,3-1.1,4.3
				c-1.8,7.1-3,12.3-4.7,16.5c-2.2,5.3-5,9.2-10.4,14.6c-9.8,9.8-16.2,15-30.5,22.2c-8.1,4-15.6,11.9-22.2,18.9
				c-1.7,1.8-3.3,3.4-4.8,5l-0.4-0.4l0.2,0.6c0,0-0.1,0.1-0.3,0.1c-0.8,0.4-2.8,1.4-5.2,2.1c-3.1,0.9-7.2,1.8-11.9,2.6
				c-8.7,1.5-18.3,2.4-22.5,2.4c-7,0-14.5,0.7-21.8,1.4c-7.2,0.7-14.6,1.4-21.4,1.4L84.4,256.5L84.4,256.5z"/>
		</g>
		<g id="rect3359">
			<path class="st0" d="M422.7,412.7h-26.6V307.3h26.6V412.7z M399.9,409H419v-98h-19.1V409z"/>
		</g>
		<g id="rect4246">
			<path class="st0" d="M400,412.8h-16.3V307.2H400V412.8z M387.4,409h8.8v-98h-8.8V409z"/>
		</g>
		<g id="rect4248">
			<path class="st0" d="M387.4,414.6l-24.9-19.9v-69.5l24.9-19.8V414.6z M366.2,392.9l17.4,13.9v-93.7L366.2,327V392.9z"/>
		</g>
		<g id="path1165">
			<path class="st0" d="M366.3,394.7l-90.4-4.4v-60.5l90.4-4.4V394.7z M279.7,386.7l82.9,4.1v-61.5l-82.9,4.1V386.7z"/>
		</g>
		<g id="path1176">
			<path class="st0" d="M279.6,389.2l-231-5.1l-0.4-1.3c-4.4-15.9-4.4-30.8,0.1-45.5l0.4-1.3l231-5.1L279.6,389.2z M51.4,380.4
				l224.4,4.9l0.1-50.7l-224.4,5C47.7,352.8,47.7,366.2,51.4,380.4z"/>
		</g>
		<g id="rect1189">
			<path class="st0" d="M427.7,409.7H419v-99.4h8.6v99.4H427.7z M422.8,406h1.1v-92h-1.1V406z"/>
		</g>
		<g id="rect1811">
			<rect x="424.1" y="310.3" class="st0" width="4.7" height="99.4"/>
		</g>
		<g id="rect1812">
			<path class="st0" d="M444.9,383.1h-15.4c-2.5,0-4.6-2.2-4.6-4.9v-36.5c0-2.7,2-4.9,4.6-4.9h15.4c2.5,0,4.6,2.2,4.6,4.9v36.5
				C449.5,381,447.5,383.1,444.9,383.1z M429.5,340.6c-0.4,0-0.8,0.5-0.8,1.1v36.5c0,0.6,0.4,1.1,0.8,1.1h15.4
				c0.4,0,0.8-0.5,0.8-1.1v-36.5c0-0.6-0.4-1.1-0.8-1.1H429.5z"/>
		</g>
		<g id="rect1813">
			<path class="st0" d="M454.7,381.4H446v-42.8h8.7V381.4z M449.8,377.7h1.2v-35.3h-1.2V377.7z"/>
		</g>
		<g id="rect1814">
			<path class="st0" d="M451,382.5v-44.9l9.1,4.5V378L451,382.5z M454.7,343.5v32.9l1.6-0.8v-31.4L454.7,343.5z"/>
		</g>
		<g id="rect1818">
			<path class="st0" d="M641,378.7H456.4v-37.4H641V378.7z M460.1,375h177.1v-29.9H460.1V375z"/>
		</g>
		<g id="rect1819">
			<path class="st0" d="M637.5,381.2v-42.5l12.5,12.1v18.3L637.5,381.2z M641.2,347.6v24.8l5-4.8v-15.1L641.2,347.6z"/>
		</g>
		<g id="rect1823">
			<path class="st0" d="M646.1,370.3v-20.7l63.7,7.3v6.1L646.1,370.3z M649.8,353.9v12.3l53.5-6.1L649.8,353.9z"/>
		</g>
		<g id="rect10606">
			<path class="st0" d="M402.4,48.7h-45.6l-2.7-3l0.1-0.2h25.5h25.4l0.1,0.2L402.4,48.7z M356.9,48.5h45.4l2.5-2.8h-25.3h-25.1
				L356.9,48.5z"/>
		</g>
		<g id="rect13316">
			<path class="st0" d="M393.5,41.1c-1.3,0-2.3-1.3-2.3-3V3c0-1.7,1-3,2.3-3s2.3,1.3,2.3,3v35.1C395.8,39.8,394.8,41.1,393.5,41.1z
				 M393.5,1.9c-0.1,0-0.4,0.4-0.4,1.1v35.1c0,0.7,0.3,1.1,0.4,1.1s0.4-0.4,0.4-1.1V3C393.9,2.3,393.6,1.9,393.5,1.9z"/>
		</g>
		<g id="rect13318">
			<path class="st0" d="M365.8,41.1c-1.3,0-2.3-1.3-2.3-3V3c0-1.7,1-3,2.3-3s2.3,1.3,2.3,3v35.1C368.1,39.8,367,41.1,365.8,41.1z
				 M365.8,1.9c-0.1,0-0.4,0.4-0.4,1.1v35.1c0,0.7,0.3,1.1,0.4,1.1s0.4-0.4,0.4-1.1V3C366.2,2.3,365.9,1.9,365.8,1.9z"/>
		</g>
		<g id="path13296">
			<path class="st0" d="M379.9,92.7l-12.2-1.1l-8.8-14.7l2.4-2.7l11.9,5.4l6.3,0.1l6.5-0.2l11.9-5.4l2.4,2.7l-8.8,14.7L379.9,92.7z
				 M370,88l9.9,0.9l9.4-1L394,80l-7.1,3.2l-7.3,0.3l-7.2-0.1l-7.1-3.2L370,88z"/>
		</g>
		<g id="rect13306">
			<path class="st0" d="M404.2,47.3H355c-2.2,0-3.9-1.8-3.9-3.9v-1.9c0-2.2,1.8-3.9,3.9-3.9h49.2c2.2,0,3.9,1.8,3.9,3.9v1.9
				C408.2,45.5,406.4,47.3,404.2,47.3z M355,41.3c-0.1,0-0.2,0.1-0.2,0.2v1.9c0,0.1,0.1,0.2,0.2,0.2h49.2c0.1,0,0.2-0.1,0.2-0.2
				v-1.9c0-0.1-0.1-0.2-0.2-0.2H355z"/>
		</g>
		<g id="path11503">
			<path class="st0" d="M381.6,83.7l-2-0.1l-7.4-0.3L356.1,72l-1.2-25.4h24h0.7h24.7l-1.2,26.7l-16.2,10l-5.4,0.2v0.2H381.6z
				 M373.4,79.6l6.1,0.3h0.1l6.2-0.3l13.6-8.4l0.9-20.8l-20.8,0.1h-20.8l0.9,19.6L373.4,79.6z"/>
		</g>
		<g id="rect13310">
			<path class="st0" d="M371.1,75.5c-1.7,0-3.1-1.2-3.2-2.8l-5-17.2v-0.3c0-1.5,0.5-2.9,1.5-3.9c1.4-1.4,3.6-2,6.8-2h7.9
				c1.9-0.1,3.8,0,5.7,0c1.1,0,2.3,0,3.4,0c3.1-0.1,5.3,0.6,6.7,2c1,1,1.5,2.3,1.5,3.9v0.3l-5,17.2c-0.2,1.6-1.6,2.8-3.2,2.8H371.1z
				 M371.4,71.7h16.3l4.9-16.7c0-0.5-0.2-0.8-0.4-0.9c-0.4-0.4-1.4-0.9-4.1-0.9c-1.2,0-2.3,0-3.5,0c-1.8,0-3.8,0-5.6,0h-0.1h-8
				c-2.7-0.1-3.7,0.5-4.1,0.9c-0.2,0.2-0.4,0.4-0.4,0.9L371.4,71.7z M388.2,71.7C388.2,71.7,388.1,71.7,388.2,71.7L388.2,71.7z"/>
		</g>
		<g id="path13320">
			<path class="st0" d="M379.7,131.7c-2.3,0-4.5-0.6-6.3-1.7l-0.3-0.2c-2.4-2.1-4.7-22.8-6.3-39.8l-0.2-2.3l12.9,1.2l13.2-1.2
				l-0.2,2.2c-1.6,17-3.9,37.7-6.3,39.8l-0.2,0.2C384.2,131.2,381.9,131.7,379.7,131.7z M375.6,127.1c2.3,1.2,5.8,1.2,7.9,0
				c1.3-2.7,3.4-19.3,4.9-35.1l-7,0.7V93l-2.1-0.2l-8.7-0.8C372.2,107.7,374.4,124.3,375.6,127.1z M383.5,127.2L383.5,127.2
				L383.5,127.2z"/>
		</g>
	</g>
</g>
</svg>
