<?xml version="1.0" encoding="utf-8"?>
<!-- Generator: Adobe Illustrator 24.0.2, SVG Export Plug-In . SVG Version: 6.00 Build 0)  -->
<svg version="1.1" id="Capa_1" xmlns="http://www.w3.org/2000/svg" xmlns:xlink="http://www.w3.org/1999/xlink" x="0px" y="0px"
	 viewBox="0 0 1280 1248" style="enable-background:new 0 0 1280 1248;" xml:space="preserve">
<style type="text/css">
	.st0{fill:none;stroke:#000000;stroke-width:100;stroke-miterlimit:10;}
</style>
<g transform="translate(0.000000,1248.000000) scale(0.100000,-0.100000)">
	<g>
		<path class="st0" d="M5358.1,6289.8l-341.1,338c-375.5,373.5-490,483.5-720.4,692.4c-445.1,403.7-731.9,627.2-958.9,747.1
			c-113.2,60.4-157.9,69.8-368.3,76.7c-796.7,25.2-1414.9,255.6-1890.1,704.4c-294.2,278.2-561.4,707.8-733.1,1178.7l-47.9,134.1
			l43.8,88.6l50.8,99.2l50.3-29.9c14.1-8.6,256.4-147.2,563.3-322.7l1074.2-614.2l66.9,40.8c462.6,280.1,759.7,678.4,883,1183.7
			c39.1,161.3,59.5,314.3,62.4,467.6l1.8,116.1l-774.8,443.1c-148.9,85.1-291.3,166.6-415.1,237.4
			c-234.4,134.1-403.7,231-422.6,241.4l-68.7,39.6l176.2,351.3l248.7-7.4c836.5-24,1428.6-150.1,1863.3-396.6
			c286.3-161.9,519-411.1,655.2-701.9c139.4-299.1,204.8-637.6,218.9-1131.9c7-236.9,14.5-276.6,73.6-386.1
			c197.2-363.7,741-990.9,1662.6-1917.4l359.1-361.2l-657.1-655.1L5358.1,6289.8z M341.7,10158.7l42.1-118
			c169.6-465.1,433.1-889.2,722.9-1163.2c467.7-441.8,1077.4-668.7,1863.9-693.5c216.3-7.1,266.7-17.8,385.8-81.3
			c230-121.6,519.3-346.7,967-752.8c231-209.4,345.6-319.6,721.7-693.6l312.8-310l627.9,627.9l628.9,626.9l-330.9,332.8
			c-924.3,929.3-1470.3,1559.5-1669.4,1926.6c-62.5,115.7-71.3,161-78.4,403.9c-13.9,488.6-78.2,822.4-215.1,1116.1
			c-132.7,283.3-359.6,526.2-638.7,684c-428.8,243.2-1015,367.6-1844.7,391.4l-223.3,6.6l-147.8-294.7l35.7-20.6
			c18.8-10.4,188.3-107.3,422.8-241.5c123.8-70.8,266.2-152.3,415.1-237.4l795.3-454.9l-2.2-139.8c-3-156.4-23.8-312.2-63.6-476.4
			c-126-516-429.1-922.6-901.1-1208.4l-87-53.1l-1094.7,626c-319.1,182.5-549.7,314.4-564.1,323.2l-13.5,8l-31.3-61.1L341.7,10158.7
			z"/>
	</g>
	<g>
		<path class="st0" d="M1691.3-20H1639c-27.2,0-90.9,7.9-137.2,15.3c-335.9,54.5-653.7,224.5-944.7,505.4
			C220.2,826.4,11.3,1222.9-15.9,1588.5l-7.7,95.1l1327.5,1325.5L2629.7,4334l109.8,13.9c195.1,23.8,417.2,95.8,625.4,202.9
			c419.1,214,724,555,815.8,912.2c22.5,85.9,39.4,195.1,39.4,254c0,51.3,12.5,63.8,165.9,217.1l171.3,171.3l640-400l2307.8,2306.8
			l2316.1,2314.1l73.7,298.6c12.9,51.8,78,310.8,89.8,332.7c12.1,22.5,512.2,374.9,809.1,582.9l0,0l803.3,563.3l45.9-43.2
			c17.8-16.8,120.3-118.3,242.4-239.4l219.9-219.9l-559.6-800.7c-224.7-321.1-544-775.4-565.4-801.7l0,0c-0.1-0.2-0.3-0.3-0.5-0.5
			c-0.2-0.2-0.3-0.4-0.4-0.5l0,0c-22.8-19.2-255.8-77.8-333.2-97.3c-185.5-46.6-300.9-79-318.9-86.9
			c-29.8-29.2-524-522.7-1202.8-1200.5c-333-332.5-715.1-714.1-1120-1118.4L5705.4,5197.1l192.6-308.5l209.4-334.5l-168.3-168.3
			L5777,4224.8l-123.1-11.7c-70.1-7.5-152.5-21.5-191.5-32.4c-419.6-111.6-794-490.3-1001.8-1013.1
			c-66.5-168.7-120.6-391-120.6-495.6c0-38.8,0-41.1-1323.8-1367.1L1691.3-20z M17.7,1668.4l6.3-76.8
			c26.6-356.1,231-743.2,561-1062.2c285-275.1,595.6-441.5,923.3-494.6C1559.9,26.5,1617.3,20,1639,20h35.7l1313.1,1313.1
			c1055.9,1057.6,1305.4,1308.5,1312.2,1339.6c-0.1,109.9,54.1,334.1,123.3,509.6c212.4,534.6,596.9,922.2,1028.5,1037
			c46.2,12.9,136.6,26.9,198,33.6l109.1,10.4l151.9,150.9l145.7,145.7l-192.5,307.5l-209.4,335.5l2321.2,2320.2
			c405,404.3,787.1,785.9,1120,1118.4c832.1,831,1200.2,1198.5,1205.9,1203.5c10.9,9.6,123.4,41.3,334.3,94.3
			c174.4,43.8,294.7,78.4,315.4,87.8c24.3,32.1,262.5,369.6,561,796.2l540.4,773.2l-196.2,196.1
			c-121.8,120.8-224.2,222.1-241.6,238.6l-22.1,20.8l-776.7-544.7c-485.1-339.8-769.5-545.2-797.6-570.8
			c-7.2-18.8-38.8-134.9-85.5-321.7l-76.3-309.4l-3.9-3.9l-2320-2318L5202.9,5654.6l-640,400l-148.8-148.8
			C4260,5751.7,4260,5749.1,4260,5717c0-62.9-17.1-173.9-40.6-264.1c-94.6-368.1-407.2-718.7-836.3-937.8
			c-212.2-109.2-439.1-182.7-638.7-207l-96.1-12.1L1332.1,2980.8L17.7,1668.4z M10017.5,10935.5
			C10017.5,10935.5,10017.5,10935.5,10017.5,10935.5S10017.5,10935.5,10017.5,10935.5z"/>
	</g>
	<g>
		<path class="st0" d="M11530.1,296.6l-248.7,7.4c-788.3,23.2-1331.3,129.1-1760.3,343.1c-197.4,97.7-337.2,199.7-482.5,352.1
			c-326.8,342-474.4,801.1-493.5,1535.3c-4,115.6-11,228.5-15.6,251.6c-32.7,145.1-240.3,448.1-569.6,830.9
			c-300.7,349.8-597.4,663.3-1221,1289.9L6289.8,5357l653.1,655.1c197.8,198.4,345.7,346.4,452,452.5
			c147.6,147.3,183.3,182.9,196.5,191.6l-0.3,0.6c13.4,6.7,14.2,5.9,56.4-34.8c21.1-20.4,51.5-50,88.7-86.6
			c71.7-70.3,171.2-168.7,287.9-284.3c793.8-790.8,1234.5-1186.6,1572-1411.6C9806.6,4700.3,9910,4660,10057,4660
			c140.5,0,363.7-17.3,530.8-41.2c420.4-60.6,791.7-193.1,1103.7-393.8c312.1-200.8,575.4-476.5,782.5-819.6
			c115.4-191.1,245.3-469.5,315.8-676.9l30.7-92l-93.3-185.6l-50.5,30c-13.9,8.5-252,144.7-553.4,317l-1084.1,619.9l-76.9-46.9
			c-582.6-351.4-923.6-952.8-935.4-1650.3l-1.8-111.2l774.7-443.1c148.3-84.8,290-165.9,413.5-236.5
			c235.3-134.6,405.3-231.9,424.2-242.3l68.7-39.6L11530.1,296.6z M6346.2,5357l420.9-421.9c624.4-627.5,921.6-941.4,1223-1292.1
			c338.3-393.3,543.7-694.7,578.3-848.6c6-29.7,12.9-155.4,16.5-258.7c18.9-723.5,163.2-1174.7,482.5-1508.9
			c141.9-148.8,278.4-248.4,471.4-343.9c423.7-211.3,961.4-315.9,1743.7-338.9l223.3-6.6l147.8,294.7l-35.7,20.6
			c-18.8,10.4-189,107.7-424.4,242.4c-123.5,70.6-265.2,151.8-413.5,236.5l-795.3,454.9l2.2,134.8c6,355.4,92.7,683.2,257.6,974.3
			c165.1,291.4,399.6,530.1,697.1,709.5l97,59.1l1104.6-631.7c313.5-179.3,539.9-308.8,554.1-317.5l13.3-7.9l66.7,132.4l-25.4,76.1
			c-69.6,204.9-198,480.1-312.1,669c-412.4,683-1020.1,1073.7-1857.7,1194.6c-162.8,23.3-388.6,40.8-525.1,40.8
			c-156.4,0-264.7,41.8-483,186.3c-339.9,226.6-782.3,623.7-1578.1,1416.5c-205.2,203.3-353.1,348.8-395.7,389.1
			c-51.7-50-262.8-260.7-629.1-628.1L6346.2,5357z"/>
	</g>
</g>
</svg>
