<?xml version="1.0" encoding="utf-8"?>
<!-- Generator: Adobe Illustrator 24.0.2, SVG Export Plug-In . SVG Version: 6.00 Build 0)  -->
<svg version="1.1" id="Capa_1" xmlns="http://www.w3.org/2000/svg" xmlns:xlink="http://www.w3.org/1999/xlink" x="0px" y="0px"
	 viewBox="0 0 340 340" style="enable-background:new 0 0 340 340;" xml:space="preserve">
<style type="text/css">
	.st0{fill:none;stroke:#000000;stroke-width:4;stroke-miterlimit:10;}
</style>
<g>
	<path class="st0" d="M213.7,238.9l0.6-4c0.8-5,1.2-10,1.2-15s-0.4-10.1-1.2-15.1l-0.6-4l16.2-14.4c3.3-2.9,4.1-7.8,1.9-11.6
		l-17.3-29.9c-1.7-2.9-4.8-4.7-8.1-4.7c-1,0-2,0.2-2.9,0.5l-20.6,6.9l-3.2-2.6c-7.9-6.4-16.6-11.4-26-15l-3.8-1.5l-4.4-21.3
		c-0.9-4.3-4.7-7.4-9.1-7.4h-34.6c-4.4,0-8.2,3.1-9.1,7.4l-4.4,21.3l-3.8,1.5c-9.4,3.6-18.1,8.7-26,15l-3.2,2.6l-20.7-6.9
		c-1-0.3-1.9-0.5-2.9-0.5c-3.3,0-6.4,1.8-8.1,4.7l-17.3,30c-2.2,3.8-1.4,8.7,1.9,11.6l16.2,14.4l-0.6,4c-0.8,5-1.2,10-1.2,15
		S23,230,23.8,235l0.6,4L8.3,253.3c-3.3,2.9-4.1,7.8-1.9,11.6l17.3,30c1.7,2.9,4.8,4.7,8.1,4.7c1,0,2-0.2,2.9-0.5l20.7-6.9l3.2,2.6
		c7.9,6.4,16.6,11.4,26,15l3.8,1.5l4.4,21.3c0.9,4.3,4.7,7.4,9.1,7.4h34.6c4.4,0,8.2-3.1,9.1-7.4l4.4-21.3l3.8-1.5
		c9.4-3.6,18.1-8.7,26-15l3.2-2.6l20.7,6.9c0.9,0.3,1.9,0.5,2.9,0.5c3.3,0,6.4-1.8,8.1-4.7l17.3-30c2.2-3.8,1.4-8.7-1.9-11.6
		L213.7,238.9z M119.1,260.6c-22.5,0-40.7-18.3-40.7-40.7c0-22.5,18.3-40.7,40.7-40.7c22.5,0,40.7,18.3,40.7,40.7
		C159.9,242.3,141.6,260.6,119.1,260.6z"/>
	<path class="st0" d="M334,120.4l-4.9-3.9c0.3-1.8,0.4-3.6,0.2-5.4c-0.1-1.9-0.4-3.7-0.9-5.4l4.5-4.4c0.7-0.7,0.8-1.9,0.3-2.7
		l-5.3-8c-0.6-0.9-1.7-1.2-2.6-0.8l-5.9,2.3c-2.8-2.2-6.1-3.9-9.7-4.9l-1.6-6.1c-0.3-1-1.2-1.7-2.2-1.6l-9.6,0.6
		c-1,0.1-1.9,0.8-2,1.9l-0.9,6.2c-3.4,1.3-6.5,3.4-9,6l-6.1-1.6c-1-0.3-2.1,0.2-2.5,1.1l-4.3,8.6c-0.5,0.9-0.2,2.1,0.6,2.7l4.9,3.9
		c-0.3,1.8-0.4,3.6-0.2,5.4c0.1,1.9,0.4,3.7,0.9,5.4l-4.5,4.4c-0.7,0.7-0.8,1.9-0.3,2.7l5.3,8c0.6,0.9,1.7,1.2,2.6,0.8l5.9-2.3
		c2.8,2.2,6.1,3.9,9.7,4.9l1.6,6.1c0.3,1,1.2,1.7,2.2,1.6l9.6-0.6c1-0.1,1.9-0.8,2-1.9l0.9-6.2c3.4-1.4,6.5-3.4,9-6l6.1,1.6
		c1,0.3,2-0.2,2.5-1.1l4.3-8.6C335,122.2,334.8,121.1,334,120.4z M303.6,124.3c-6.4,0.4-12-4.6-12.4-11s4.6-12,11-12.4
		c6.5-0.4,12,4.6,12.4,11C315,118.4,310.1,123.9,303.6,124.3z"/>
	<path class="st0" d="M278.6,73.3l2.4-16.6c0.3-1.8-0.8-3.5-2.5-4.1l-10.3-3.7c-0.5-3.1-1.4-6.1-2.6-9.1c-1.2-3-2.7-5.8-4.4-8.4
		l4.9-9.8c0.8-1.6,0.4-3.6-1-4.7L251.8,6.4c-1.4-1.1-3.4-1.1-4.8,0.1l-8.4,7.1c-5.9-2.2-12.3-3.1-18.7-2.7l-6-9.2
		c-1-1.5-2.9-2.1-4.6-1.4l-15.6,6.2c-1.7,0.7-2.7,2.4-2.3,4.2l1.9,10.8c-4.9,4.1-8.9,9.2-11.7,14.9l-11,0.6
		c-1.8,0.1-3.3,1.5-3.5,3.3l-2.4,16.6c-0.3,1.8,0.8,3.5,2.5,4.1l10.3,3.7c0.5,3.1,1.4,6.1,2.6,9.1c1.2,3,2.7,5.8,4.4,8.4l-4.9,9.8
		c-0.8,1.6-0.4,3.6,1,4.7l13.2,10.4c1.4,1.1,3.4,1.1,4.8-0.1l8.4-7.1c5.9,2.2,12.3,3.1,18.7,2.7l6,9.2c1,1.5,2.9,2.1,4.6,1.4
		l15.6-6.2c1.7-0.7,2.7-2.4,2.3-4.2L252.3,92c4.9-4.1,8.9-9.2,11.7-14.9l11-0.6C276.8,76.5,278.3,75.1,278.6,73.3z M230.4,75.8
		c-10.5,4.2-22.4-0.9-26.6-11.4c-4.2-10.5,0.9-22.4,11.4-26.6s22.4,0.9,26.6,11.4S240.9,71.6,230.4,75.8z"/>
</g>
</svg>
