<?xml version="1.0" encoding="utf-8"?>
<!-- Generator: Adobe Illustrator 24.0.2, SVG Export Plug-In . SVG Version: 6.00 Build 0)  -->
<svg version="1.1" id="Capa_1" xmlns="http://www.w3.org/2000/svg" xmlns:xlink="http://www.w3.org/1999/xlink" x="0px" y="0px"
	 viewBox="0 0 46.2 37.6" style="enable-background:new 0 0 46.2 37.6;" xml:space="preserve">
<style type="text/css">
	.st0{fill:#FFFFFF;stroke:#000000;stroke-miterlimit:10;}
</style>
<g>
	<polygon class="st0" points="3.2,34.7 18.7,17 18.7,20.9 31.9,8.2 32.4,7.2 33,5.7 33.7,4 34.1,3.2 34.5,2.5 34.9,2.1 35.5,1.7 
		36.3,1.3 37.4,1.1 38.6,0.8 39.7,0.7 41.1,0.5 41.6,0.5 41.8,0.7 42,0.9 37.1,5.1 37.1,5.6 37.1,6.1 37.2,6.7 37.6,7.4 38.1,8.2 
		38.8,8.6 39.4,9 40.3,9.1 41.1,8.8 42.3,8.1 44.1,6.8 45.5,5.7 45.7,5.9 45.7,6.2 45.7,6.9 45.3,7.5 44.8,8.3 44.4,9.1 43.7,10 
		43.1,10.9 42.4,11.7 41.3,12.5 39.9,12.9 38.7,13.2 37.8,13.2 36.7,13.2 35.8,13.3 34.9,13.7 34,14.3 27.5,20.9 27.5,19.1 
		27.5,18.6 27.5,18.1 27.5,17.6 27.4,17.4 15.6,28.3 15.5,26 	"/>
</g>
</svg>
