<?xml version="1.0" encoding="utf-8"?>
<!-- Generator: Adobe Illustrator 24.0.2, SVG Export Plug-In . SVG Version: 6.00 Build 0)  -->
<svg version="1.1" id="Capa_1" xmlns="http://www.w3.org/2000/svg" xmlns:xlink="http://www.w3.org/1999/xlink" x="0px" y="0px"
	 viewBox="0 0 328 54" style="enable-background:new 0 0 328 54;" xml:space="preserve">
<style type="text/css">
	.st0{fill:#FFFFFF;}
</style>
<g>
	<path class="st0" d="M56.5,9.4l0.8,11.8h-0.8c-1.1-3.5-2.6-6.1-4.6-7.7s-4.4-2.4-7.1-2.4c-2.4,0-4.4,0.6-6.3,1.8s-3.3,3.1-4.4,5.7
		s-1.7,5.8-1.7,9.6c0,3.2,0.5,5.9,1.5,8.3s2.5,4.1,4.6,5.3c2,1.2,4.4,1.9,7,1.9c2.2,0,4.3-0.5,6-1.4s3.7-3,5.7-5.8l0.8,0.5
		c-1.8,3.1-3.8,5.4-6.1,6.8s-5.1,2.1-8.3,2.1c-5.8,0-10.3-2.1-13.5-6.4c-2.4-3.2-3.5-7-3.5-11.2c0-3.5,0.8-6.7,2.4-9.6
		c1.5-3,3.7-5.2,6.5-6.7c2.7-1.7,5.7-2.4,9-2.4c2.5,0,5,0.6,7.4,1.9c0.7,0.4,1.2,0.6,1.5,0.6c0.5,0,0.8-0.1,1.2-0.5
		c0.5-0.5,0.7-1.1,0.9-1.9h0.8V9.4z"/>
	<path class="st0" d="M84,33.4H70.5l-2.4,5.5c-0.6,1.3-0.8,2.4-0.8,3.1c0,0.6,0.2,0.9,0.7,1.4c0.5,0.4,1.7,0.7,3.3,0.8v0.9h-11v-0.9
		c1.4-0.2,2.4-0.6,2.8-0.9c0.8-0.8,1.9-2.5,3-5.1L78.3,9.4h0.9l12.2,29c0.9,2.4,1.9,3.9,2.7,4.5c0.8,0.7,1.9,1.1,3.3,1.2v0.9H83.6
		v-0.9c1.4-0.1,2.4-0.4,2.8-0.7c0.5-0.4,0.7-0.8,0.7-1.4c0-0.7-0.4-1.9-1.1-3.5L84,33.4z M83.3,31.5l-5.9-14.1l-6,14.1H83.3z"/>
	<path class="st0" d="M119.5,45.1l-13.5-29.4v23.3c0,2.1,0.2,3.5,0.7,4c0.6,0.7,1.7,1.1,3.1,1.1h1.2V45H98.8V44h1.2
		c1.4,0,2.5-0.5,3.2-1.3c0.4-0.6,0.6-1.8,0.6-3.8V16.3c0-1.5-0.1-2.7-0.5-3.3c-0.2-0.5-0.7-0.9-1.3-1.3c-0.6-0.4-1.7-0.5-3.1-0.5
		v-0.9h9.9l12.6,27.3l12.4-27.3h9.9v0.9h-1.2c-1.5,0-2.6,0.5-3.2,1.3c-0.4,0.6-0.6,1.8-0.6,3.8v22.8c0,2.1,0.2,3.5,0.7,4
		c0.6,0.7,1.7,1.1,3.1,1.1h1.2v0.9H129v-0.9h1.2c1.5,0,2.6-0.5,3.2-1.3c0.4-0.6,0.6-1.8,0.6-3.8V15.7l-13.6,29.4H119.5z"/>
	<path class="st0" d="M155.8,12.1v13.8h7.7c2,0,3.3-0.4,4-0.9c0.9-0.8,1.4-2.1,1.5-4.1h0.9V33H169c-0.2-1.7-0.5-2.8-0.7-3.3
		c-0.4-0.6-0.8-1.1-1.5-1.4c-0.7-0.4-1.8-0.5-3.2-0.5h-7.8v11.5c0,1.5,0.1,2.5,0.2,2.8c0.1,0.4,0.4,0.6,0.7,0.8s0.9,0.4,2,0.4h5.9
		c2,0,3.4-0.1,4.3-0.4c0.9-0.2,1.8-0.8,2.6-1.7c1.1-1.1,2.1-2.7,3.3-4.8h1.1l-3.1,8.7h-26.9v-0.9h1.2c0.8,0,1.7-0.2,2.4-0.6
		c0.6-0.2,0.9-0.7,1.1-1.2c0.2-0.6,0.4-1.7,0.4-3.4V16.3c0-2.2-0.2-3.5-0.7-4.1c-0.6-0.7-1.7-1.1-3.1-1.1h-1.2v-0.9h26.9l0.4,7.7
		h-1.1c-0.4-1.9-0.7-3.1-1.2-3.8s-1.1-1.2-1.9-1.5c-0.7-0.2-1.9-0.4-3.7-0.4H155.8z"/>
	<path class="st0" d="M207.5,10.2l0.4,8.1h-0.9c-0.2-1.4-0.5-2.5-0.8-3.1c-0.5-0.9-1.2-1.8-2.1-2.2s-2-0.7-3.5-0.7h-5v26.7
		c0,2.1,0.2,3.5,0.7,4c0.7,0.7,1.7,1.1,3.1,1.1h1.2v0.9h-14.8v-0.9h1.2c1.4,0,2.5-0.5,3.2-1.3c0.4-0.6,0.6-1.8,0.6-3.8V12.4h-4.1
		c-1.7,0-2.8,0.1-3.4,0.4c-0.9,0.4-1.7,0.9-2.2,1.9c-0.6,0.9-1.1,2.1-1.2,3.8h-0.9l0.4-8.1C179,10.2,207.5,10.2,207.5,10.2z"/>
	<path class="st0" d="M246.2,9.4l0.2,11.7h-1.1c-0.5-3-1.8-5.3-3.7-7.1s-4-2.7-6.4-2.7c-1.8,0-3.2,0.5-4.1,1.4
		c-1.1,0.9-1.5,2-1.5,3.2c0,0.8,0.2,1.4,0.6,2c0.5,0.8,1.3,1.7,2.4,2.4c0.8,0.6,2.7,1.5,5.5,3.1c4.1,2,6.8,3.9,8.3,5.7
		s2.1,3.8,2.1,6.1c0,3-1.2,5.4-3.4,7.6c-2.2,2.1-5.2,3.2-8.6,3.2c-1.1,0-2.1-0.1-3.1-0.4s-2.2-0.6-3.7-1.3c-0.8-0.4-1.5-0.5-2-0.5
		s-0.9,0.1-1.4,0.5c-0.5,0.4-0.9,0.8-1.2,1.5h-0.9V32.7h0.9c0.7,3.7,2.2,6.5,4.4,8.5c2.1,1.9,4.5,3,7,3c1.9,0,3.4-0.5,4.6-1.5
		c1.2-1.1,1.8-2.2,1.8-3.7c0-0.8-0.2-1.7-0.7-2.4c-0.5-0.8-1.1-1.5-2-2.2c-0.9-0.7-2.5-1.7-4.7-2.7c-3.2-1.5-5.4-2.8-6.8-4
		c-1.4-1.1-2.5-2.4-3.2-3.7c-0.7-1.3-1.1-2.8-1.1-4.5c0-2.8,1.1-5.2,3.1-7.1c2-2,4.6-3,7.7-3c1.2,0,2.2,0.1,3.3,0.4
		c0.8,0.2,1.8,0.6,3,1.2c1.2,0.6,2,0.8,2.5,0.8c0.5,0,0.8-0.1,1.1-0.4c0.2-0.2,0.5-0.9,0.7-2C245.6,9.4,246.2,9.4,246.2,9.4z"/>
	<path class="st0" d="M272.7,35.2h-12.3l-1.4,3.4c-0.5,1.2-0.7,2.1-0.7,2.8c0,0.9,0.4,1.7,1.2,2.1c0.5,0.2,1.7,0.5,3.4,0.6v0.9
		h-11.6v-0.9c1.3-0.2,2.2-0.7,3.1-1.5c0.8-0.8,1.8-2.6,3-5.3l12.4-27.9h0.5L282.8,38c1.2,2.7,2.2,4.4,3,5.1c0.6,0.6,1.4,0.8,2.5,0.9
		V45h-16.9V44h0.7c1.3,0,2.4-0.2,2.8-0.6c0.4-0.2,0.6-0.7,0.6-1.2c0-0.4,0-0.6-0.1-0.9c0-0.1-0.2-0.8-0.8-1.9L272.7,35.2z
		 M271.8,33.3l-5.2-12l-5.3,12H271.8z"/>
	<path class="st0" d="M313.5,9.4l0.2,11.7h-0.9c-0.5-3-1.8-5.3-3.7-7.1s-4-2.7-6.4-2.7c-1.8,0-3.2,0.5-4.1,1.4
		c-1.1,0.9-1.5,2-1.5,3.2c0,0.8,0.2,1.4,0.6,2c0.5,0.8,1.3,1.7,2.4,2.4c0.8,0.6,2.7,1.5,5.5,3.1c4.1,2,6.8,3.9,8.3,5.7
		s2.1,3.8,2.1,6.1c0,3-1.2,5.4-3.4,7.6c-2.2,2.1-5.2,3.2-8.6,3.2c-1.1,0-2.1-0.1-3.1-0.4s-2.2-0.6-3.7-1.3c-0.8-0.4-1.5-0.5-2-0.5
		s-0.9,0.1-1.4,0.5c-0.5,0.4-0.9,0.8-1.2,1.5h-1.1V32.7h0.9c0.7,3.7,2.2,6.5,4.4,8.5c2.1,1.9,4.5,3,7,3c1.9,0,3.4-0.5,4.6-1.5
		c1.2-1.1,1.8-2.2,1.8-3.7c0-0.8-0.2-1.7-0.7-2.4c-0.5-0.8-1.1-1.5-2-2.2c-0.9-0.7-2.5-1.7-4.7-2.7c-3.2-1.5-5.4-2.8-6.8-4
		c-1.4-1.1-2.5-2.4-3.2-3.7s-1.1-2.8-1.1-4.5c0-2.8,1.1-5.2,3.1-7.1c2-2,4.6-3,7.7-3c1.2,0,2.2,0.1,3.3,0.4c0.8,0.2,1.8,0.6,3,1.2
		c1.2,0.6,2,0.8,2.5,0.8s0.8-0.1,1.1-0.4c0.2-0.2,0.5-0.9,0.7-2C312.9,9.4,313.5,9.4,313.5,9.4z"/>
</g>
</svg>
