<?xml version="1.0" encoding="utf-8"?>
<!-- Generator: Adobe Illustrator 24.0.2, SVG Export Plug-In . SVG Version: 6.00 Build 0)  -->
<svg version="1.1" id="Capa_1" xmlns="http://www.w3.org/2000/svg" xmlns:xlink="http://www.w3.org/1999/xlink" x="0px" y="0px"
	 viewBox="0 0 1916 791" style="enable-background:new 0 0 1916 791;" xml:space="preserve">
<style type="text/css">
	.st0{fill:#142121;}
	.st1{fill:#FFF422;}
	.st2{fill:#FFFFFF;}
	.st3{fill:#7C7C7C;}
	.st4{fill:#FFFF3E;}
</style>
<g>
	<g>
		<rect class="st0" width="1916" height="791"/>
	</g>
</g>
<g>
	<g>
		<g>
			<g>
				<path class="st1" d="M881.8,582.6c-22.9,11.5-68.8,22.9-127.6,22.9c-136.2,0-238.7-86-238.7-244.4
					c0-151.2,102.5-253.7,252.3-253.7c60.2,0,98.2,12.9,114.7,21.5l-15.1,50.9c-23.7-11.5-57.3-20.1-97.5-20.1
					c-113.2,0-188.5,72.4-188.5,199.2c0,118.3,68.1,194.2,185.6,194.2c38,0,76.7-7.9,101.8-20.1L881.8,582.6z"/>
			</g>
		</g>
	</g>
	<g>
		<g>
			<g>
				<path class="st2" d="M1028.1,269c0,0,6,7-2,20c-6.7,10.9-29,43.1-35.9,53c-1.4,2-3.2,3.8-5.3,5.1c-8.2,5.3-27.7,16.3-43.7,14.8
					c0,0-32,2-36,4s-14.1,3.6-39,28c-27,26.5-62,63-62,63l-2-42l-143,132v-49l-154,130l192-220v47l161.7-154.8
					c1.5-1.4,2.6-3.2,3.2-5.2c3.8-12.2,18.9-58.1,37.1-73c2.4-2,4-4,10-6l67-10c0,0,10,4,4,8s-53,38-53,38s-12,27,2,41s32,26,48,10
					l51-33"/>
			</g>
		</g>
	</g>
	<g>
		<g>
			<g>
				<path class="st3" d="M867,491.4l-8.1,24.4h-10.4l26.4-77.6h12.1l26.5,77.6h-10.7l-8.3-24.4H867z M892.5,483.6l-7.6-22.3
					c-1.7-5.1-2.9-9.7-4-14.2h-0.2c-1.2,4.6-2.4,9.3-3.9,14l-7.6,22.5H892.5z"/>
			</g>
		</g>
		<g>
			<g>
				<path class="st3" d="M989.9,481.8c-0.6-10.8-1.3-23.8-1.2-33.5h-0.3c-2.6,9.1-5.9,18.8-9.8,29.5l-13.7,37.6h-7.6l-12.5-37
					c-3.7-10.9-6.8-21-9-30.2h-0.2c-0.2,9.7-0.8,22.7-1.5,34.3l-2.1,33.3h-9.6l5.4-77.6h12.8l13.2,37.5c3.2,9.6,5.9,18.1,7.8,26.1
					h0.3c2-7.8,4.7-16.3,8.2-26.1l13.8-37.5h12.8l4.8,77.6h-9.8L989.9,481.8z"/>
			</g>
		</g>
		<g>
			<g>
				<path class="st3" d="M1057.2,479.5h-30.2v28h33.6v8.4H1017v-77.6h41.9v8.4h-31.9v24.5h30.2V479.5z"/>
			</g>
		</g>
		<g>
			<g>
				<path class="st3" d="M1090.3,446.8h-23.6v-8.5h57.4v8.5h-23.7v69.1h-10.1V446.8z"/>
			</g>
		</g>
	</g>
	<g>
		<g>
			<g>
				<path class="st4" d="M1200.6,142.7c-6.7,11.6-12,28.3-11.5,45.8c0.7,25.9,14.9,40.7,34.7,40.1c18.4-0.5,28.6-11.3,38-38.1
					c10.5-32.4,26.5-52.7,54.2-53.4c30.6-0.9,54,23.8,55.1,62c0.6,20.1-3.7,34.8-8.4,43.7l-20.9-6.4c3.3-6.5,8.8-19.8,8.3-37.6
					c-0.8-26.8-17.1-36.6-30.5-36.2c-18.4,0.5-27.1,12.7-36.8,40.1c-11.9,33.6-27.4,50.9-56.3,51.7c-30.3,0.9-57.2-20.8-58.5-67.2
					c-0.5-18.9,4.4-39.8,11.1-50.5L1200.6,142.7z"/>
			</g>
		</g>
		<g>
			<g>
				<path class="st4" d="M1236.6,320.7l-62.3-18.7l-0.7-26.2l198.3,61.2l0.9,30.6l-194.5,72.5l-0.8-27.1l61.2-22.7L1236.6,320.7z
					 M1258.2,384.5l56-20.8c12.7-4.7,24.3-8,35.6-11.2l0-0.6c-11.7-2.6-23.8-5.5-35.8-8.9l-57.4-17.6L1258.2,384.5z"/>
			</g>
		</g>
		<g>
			<g>
				<path class="st4" d="M1209.7,464.6c-6.7,11.6-12,28.3-11.5,45.8c0.7,25.9,14.9,40.7,34.7,40.1c18.4-0.5,28.5-11.3,38-38.1
					c10.5-32.4,26.5-52.7,54.2-53.4c30.6-0.9,54,23.8,55.1,62c0.6,20.1-3.7,34.8-8.4,43.7l-20.9-6.4c3.3-6.5,8.8-19.8,8.3-37.6
					c-0.8-26.8-17.1-36.6-30.5-36.2c-18.4,0.5-27.1,12.7-36.8,40.1c-11.9,33.6-27.4,50.9-56.3,51.7c-30.3,0.9-57.2-20.8-58.5-67.2
					c-0.5-18.9,4.4-39.8,11.1-50.5L1209.7,464.6z"/>
			</g>
		</g>
	</g>
</g>
<g>
	<g>
		<g>
			
				<rect x="134" y="144.2" transform="matrix(0.7071 -0.7071 0.7071 0.7071 -93.1026 151.2305)" class="st2" width="4" height="87.7"/>
		</g>
	</g>
	<g>
		<g>
			
				<rect x="92.2" y="186" transform="matrix(0.7071 -0.7071 0.7071 0.7071 -93.1026 151.2305)" class="st2" width="87.7" height="4"/>
		</g>
	</g>
</g>
<g>
	<g>
		<g>
			
				<rect x="1702" y="217.2" transform="matrix(0.3069 -0.9517 0.9517 0.3069 932.6782 1802.6873)" class="st2" width="4" height="87.7"/>
		</g>
	</g>
	<g>
		<g>
			
				<rect x="1660.2" y="259" transform="matrix(0.3069 -0.9517 0.9517 0.3069 932.6782 1802.6873)" class="st2" width="87.7" height="4"/>
		</g>
	</g>
</g>
<g>
	<g>
		<g>
			<polygon class="st2" points="1125.4,27.6 1122.6,30.4 1093,0.8 1092.2,0 1097.8,0 			"/>
		</g>
	</g>
	<g>
		<g>
			<polygon class="st2" points="1088.2,0 1060.6,27.6 1063.4,30.4 1093,0.8 1093.8,0 1092.2,0 			"/>
		</g>
	</g>
</g>
<g>
	<g>
		<g>
			
				<rect x="514" y="40.2" transform="matrix(0.2074 -0.9783 0.9783 0.2074 326.8289 571.3667)" class="st2" width="4" height="87.7"/>
		</g>
	</g>
	<g>
		<g>
			
				<rect x="472.2" y="82" transform="matrix(0.2074 -0.9783 0.9783 0.2074 326.8289 571.3667)" class="st2" width="87.7" height="4"/>
		</g>
	</g>
</g>
<g>
	<g>
		<g>
			
				<rect x="1702" y="569.2" transform="matrix(7.845431e-02 -0.9969 0.9969 7.845431e-02 959.2033 2263.6553)" class="st2" width="4" height="87.7"/>
		</g>
	</g>
	<g>
		<g>
			
				<rect x="1660.2" y="611" transform="matrix(7.860034e-02 -0.9969 0.9969 7.860034e-02 958.9615 2263.5461)" class="st2" width="87.7" height="4"/>
		</g>
	</g>
</g>
<g>
	<g>
		<circle class="st0" cx="320.5" cy="333.5" r="39.5"/>
	</g>
	<g>
		<path class="st2" d="M320.5,375c-22.9,0-41.5-18.6-41.5-41.5s18.6-41.5,41.5-41.5s41.5,18.6,41.5,41.5S343.4,375,320.5,375z
			 M320.5,296c-20.7,0-37.5,16.8-37.5,37.5s16.8,37.5,37.5,37.5s37.5-16.8,37.5-37.5S341.2,296,320.5,296z"/>
	</g>
</g>
<g>
	<g>
		<path class="st0" d="M74.2,763.5c0,10-2.6,19.4-7.3,27.5H0v-80c5.8-2,12-3.1,18.5-3.1C49.3,707.8,74.2,732.8,74.2,763.5z"/>
	</g>
	<g>
		<path class="st2" d="M18.5,705c-6.5,0-12.7,1-18.5,3v6c5.8-2.2,12-3.3,18.5-3.3c29.2,0,52.9,23.7,52.9,52.9
			c0,10.1-2.8,19.5-7.7,27.5h6.5c4.4-8.2,6.9-17.6,6.9-27.5C77,731.2,50.8,705,18.5,705z"/>
	</g>
</g>
<g>
	<g>
		<circle class="st0" cx="1759.5" cy="123.5" r="39.5"/>
	</g>
	<g>
		<path class="st2" d="M1759.5,165c-22.9,0-41.5-18.6-41.5-41.5s18.6-41.5,41.5-41.5s41.5,18.6,41.5,41.5S1782.4,165,1759.5,165z
			 M1759.5,86c-20.7,0-37.5,16.8-37.5,37.5s16.8,37.5,37.5,37.5s37.5-16.8,37.5-37.5S1780.2,86,1759.5,86z"/>
	</g>
</g>
<g>
	<g>
		<circle class="st0" cx="454" cy="506" r="13"/>
	</g>
	<g>
		<path class="st2" d="M454,521c-8.3,0-15-6.7-15-15s6.7-15,15-15s15,6.7,15,15S462.3,521,454,521z M454,495c-6.1,0-11,4.9-11,11
			s4.9,11,11,11s11-4.9,11-11S460.1,495,454,495z"/>
	</g>
</g>
<g>
	<g>
		<circle class="st0" cx="1039" cy="671" r="13"/>
	</g>
	<g>
		<path class="st2" d="M1039,686c-8.3,0-15-6.7-15-15s6.7-15,15-15s15,6.7,15,15S1047.3,686,1039,686z M1039,660
			c-6.1,0-11,4.9-11,11s4.9,11,11,11s11-4.9,11-11S1045.1,660,1039,660z"/>
	</g>
</g>
<g>
	<g>
		<circle class="st0" cx="1039" cy="671" r="13"/>
	</g>
	<g>
		<path class="st2" d="M1039,686c-8.3,0-15-6.7-15-15s6.7-15,15-15s15,6.7,15,15S1047.3,686,1039,686z M1039,660
			c-6.1,0-11,4.9-11,11s4.9,11,11,11s11-4.9,11-11S1045.1,660,1039,660z"/>
	</g>
</g>
<g>
	<g>
		<path class="st2" d="M1906.5,302c3.2,0,6.4,0.2,9.5,0.5v-4c-3.1-0.3-6.3-0.5-9.5-0.5c-49.3,0-89.5,40.1-89.5,89.5
			c0,49.3,40.2,89.5,89.5,89.5c3.2,0,6.4-0.2,9.5-0.5v-4c-3.1,0.4-6.3,0.5-9.5,0.5c-47.1,0-85.5-38.4-85.5-85.5
			C1821,340.3,1859.4,302,1906.5,302z"/>
	</g>
	<g>
		<path class="st2" d="M1906.5,296c-50.4,0-91.5,41-91.5,91.5s41.1,91.5,91.5,91.5c3.2,0,6.4-0.2,9.5-0.5v-8.1
			c-3.1,0.4-6.3,0.5-9.5,0.5c-46,0-83.5-37.5-83.5-83.5c0-46,37.5-83.5,83.5-83.5c3.2,0,6.4,0.2,9.5,0.5v-8
			C1912.9,296.2,1909.7,296,1906.5,296z"/>
	</g>
</g>
<g>
	<g>
		<circle class="st0" cx="1471" cy="86" r="13"/>
	</g>
	<g>
		<path class="st2" d="M1471,101c-8.3,0-15-6.7-15-15s6.7-15,15-15s15,6.7,15,15S1479.3,101,1471,101z M1471,75c-6.1,0-11,4.9-11,11
			s4.9,11,11,11s11-4.9,11-11S1477.1,75,1471,75z"/>
	</g>
</g>
<g>
	<g>
		<circle class="st0" cx="441.5" cy="684.5" r="2.5"/>
	</g>
	<g>
		<path class="st2" d="M441.5,689c-2.5,0-4.5-2-4.5-4.5s2-4.5,4.5-4.5s4.5,2,4.5,4.5S444,689,441.5,689z M441.5,684
			c-0.3,0-0.5,0.2-0.5,0.5s0.2,0.5,0.5,0.5s0.5-0.2,0.5-0.5S441.8,684,441.5,684z"/>
	</g>
</g>
<g>
	<g>
		<circle class="st0" cx="1371.5" cy="670.5" r="2.5"/>
	</g>
	<g>
		<path class="st2" d="M1371.5,675c-2.5,0-4.5-2-4.5-4.5s2-4.5,4.5-4.5s4.5,2,4.5,4.5S1374,675,1371.5,675z M1371.5,670
			c-0.3,0-0.5,0.2-0.5,0.5s0.2,0.5,0.5,0.5s0.5-0.2,0.5-0.5S1371.8,670,1371.5,670z"/>
	</g>
</g>
<g>
	<g>
		<circle class="st0" cx="336.5" cy="157.5" r="2.5"/>
	</g>
	<g>
		<path class="st2" d="M336.5,162c-2.5,0-4.5-2-4.5-4.5s2-4.5,4.5-4.5s4.5,2,4.5,4.5S339,162,336.5,162z M336.5,157
			c-0.3,0-0.5,0.2-0.5,0.5s0.2,0.5,0.5,0.5s0.5-0.2,0.5-0.5S336.8,157,336.5,157z"/>
	</g>
</g>
<g>
	<g>
		<circle class="st0" cx="1060.5" cy="148.5" r="2.5"/>
	</g>
	<g>
		<path class="st2" d="M1060.5,153c-2.5,0-4.5-2-4.5-4.5s2-4.5,4.5-4.5s4.5,2,4.5,4.5S1063,153,1060.5,153z M1060.5,148
			c-0.3,0-0.5,0.2-0.5,0.5s0.2,0.5,0.5,0.5s0.5-0.2,0.5-0.5S1060.8,148,1060.5,148z"/>
	</g>
</g>
<g>
	<g>
		<g>
			<path class="st2" d="M167,636.4c-0.5,0-0.9-0.2-1.3-0.5c-0.8-0.7-0.9-2-0.2-2.8l25.6-29.7c0.7-0.8,2-0.9,2.8-0.2
				c0.8,0.7,0.9,2,0.2,2.8l-25.6,29.7C168.1,636.2,167.6,636.4,167,636.4z"/>
		</g>
	</g>
	<g>
		<g>
			<path class="st2" d="M192.8,606.3c-0.7,0-1.3-0.3-1.7-0.9l-8.6-13.2c-0.6-0.9-0.3-2.2,0.6-2.8c0.9-0.6,2.2-0.3,2.8,0.6l8.6,13.2
				c0.6,0.9,0.3,2.2-0.6,2.8C193.5,606.2,193.2,606.3,192.8,606.3z"/>
		</g>
	</g>
	<g>
		<g>
			<path class="st2" d="M216.9,612.5c-0.3,0-0.7-0.1-1-0.3l-32.7-19.3c-1-0.6-1.3-1.8-0.7-2.7c0.6-1,1.8-1.3,2.7-0.7l32.7,19.3
				c1,0.6,1.3,1.8,0.7,2.7C218.2,612.1,217.6,612.5,216.9,612.5z"/>
		</g>
	</g>
	<g>
		<g>
			<path class="st2" d="M216.9,612.5c-0.5,0-1.1-0.2-1.5-0.7l-59-65c-0.7-0.8-0.7-2.1,0.1-2.8c0.8-0.7,2.1-0.7,2.8,0.1l59,65
				c0.7,0.8,0.7,2.1-0.1,2.8C217.8,612.3,217.4,612.5,216.9,612.5z"/>
		</g>
	</g>
	<g>
		<g>
			<path class="st2" d="M262.2,613.7c-0.4,0-0.7-0.1-1.1-0.3l-104.4-66.2c-0.9-0.6-1.2-1.8-0.6-2.8c0.6-0.9,1.8-1.2,2.8-0.6
				L263.3,610c0.9,0.6,1.2,1.8,0.6,2.8C263.5,613.3,262.9,613.7,262.2,613.7z"/>
		</g>
	</g>
	<g>
		<g>
			<path class="st2" d="M262.2,613.7c-0.5,0-1-0.2-1.4-0.5l-61.1-57c-0.8-0.8-0.9-2-0.1-2.8c0.8-0.8,2-0.9,2.8-0.1l61.1,57
				c0.8,0.8,0.9,2,0.1,2.8C263.3,613.5,262.7,613.7,262.2,613.7z"/>
		</g>
	</g>
	<g>
		<g>
			<path class="st2" d="M233.2,576.8c-0.4,0-0.7-0.1-1.1-0.3l-32.1-20.1c-0.9-0.6-1.2-1.8-0.6-2.8c0.6-0.9,1.8-1.2,2.8-0.6
				l32.1,20.1c0.9,0.6,1.2,1.8,0.6,2.8C234.5,576.5,233.8,576.8,233.2,576.8z"/>
		</g>
	</g>
	<g>
		<g>
			<path class="st2" d="M233.2,576.8c-0.6,0-1.1-0.2-1.5-0.7l-10.2-11.8c-0.7-0.8-0.6-2.1,0.2-2.8c0.8-0.7,2.1-0.6,2.8,0.2
				l10.2,11.8c0.7,0.8,0.6,2.1-0.2,2.8C234.1,576.6,233.6,576.8,233.2,576.8z"/>
		</g>
	</g>
	<g>
		<g>
			<path class="st2" d="M223,564.6c-0.5,0-0.9-0.2-1.3-0.5c-0.8-0.7-0.9-2-0.2-2.8l26.9-31.8c0.7-0.8,2-0.9,2.8-0.2
				c0.8,0.7,0.9,2,0.2,2.8l-26.9,31.8C224.1,564.3,223.6,564.6,223,564.6z"/>
		</g>
	</g>
</g>
<g>
	<g>
		<g>
			<path class="st2" d="M826,763.4c-0.5,0-0.9-0.2-1.3-0.5c-0.8-0.7-0.9-2-0.2-2.8l25.6-29.7c0.7-0.8,2-0.9,2.8-0.2
				c0.8,0.7,0.9,2,0.2,2.8l-25.6,29.7C827.1,763.2,826.6,763.4,826,763.4z"/>
		</g>
	</g>
	<g>
		<g>
			<path class="st2" d="M851.8,733.3c-0.7,0-1.3-0.3-1.7-0.9l-8.6-13.2c-0.6-0.9-0.3-2.2,0.6-2.8c0.9-0.6,2.2-0.3,2.8,0.6l8.6,13.2
				c0.6,0.9,0.3,2.2-0.6,2.8C852.5,733.2,852.2,733.3,851.8,733.3z"/>
		</g>
	</g>
	<g>
		<g>
			<path class="st2" d="M875.9,739.5c-0.3,0-0.7-0.1-1-0.3l-32.7-19.3c-1-0.6-1.3-1.8-0.7-2.7s1.8-1.3,2.7-0.7l32.7,19.3
				c1,0.6,1.3,1.8,0.7,2.7C877.2,739.1,876.6,739.5,875.9,739.5z"/>
		</g>
	</g>
	<g>
		<g>
			<path class="st2" d="M875.9,739.5c-0.5,0-1.1-0.2-1.5-0.7l-59-65c-0.7-0.8-0.7-2.1,0.1-2.8c0.8-0.7,2.1-0.7,2.8,0.1l59,65
				c0.7,0.8,0.7,2.1-0.1,2.8C876.8,739.3,876.4,739.5,875.9,739.5z"/>
		</g>
	</g>
	<g>
		<g>
			<path class="st2" d="M921.2,740.7c-0.4,0-0.7-0.1-1.1-0.3l-104.4-66.2c-0.9-0.6-1.2-1.8-0.6-2.8c0.6-0.9,1.8-1.2,2.8-0.6
				L922.3,737c0.9,0.6,1.2,1.8,0.6,2.8C922.5,740.3,921.9,740.7,921.2,740.7z"/>
		</g>
	</g>
	<g>
		<g>
			<path class="st2" d="M921.2,740.7c-0.5,0-1-0.2-1.4-0.5l-61.1-57c-0.8-0.8-0.9-2-0.1-2.8c0.8-0.8,2-0.9,2.8-0.1l61.1,57
				c0.8,0.8,0.9,2,0.1,2.8C922.3,740.5,921.7,740.7,921.2,740.7z"/>
		</g>
	</g>
	<g>
		<g>
			<path class="st2" d="M892.2,703.8c-0.4,0-0.7-0.1-1.1-0.3l-32.1-20.1c-0.9-0.6-1.2-1.8-0.6-2.8c0.6-0.9,1.8-1.2,2.8-0.6
				l32.1,20.1c0.9,0.6,1.2,1.8,0.6,2.8C893.5,703.5,892.8,703.8,892.2,703.8z"/>
		</g>
	</g>
	<g>
		<g>
			<path class="st2" d="M892.2,703.8c-0.6,0-1.1-0.2-1.5-0.7l-10.2-11.8c-0.7-0.8-0.6-2.1,0.2-2.8c0.8-0.7,2.1-0.6,2.8,0.2
				l10.2,11.8c0.7,0.8,0.6,2.1-0.2,2.8C893.1,703.6,892.6,703.8,892.2,703.8z"/>
		</g>
	</g>
	<g>
		<g>
			<path class="st2" d="M882,691.6c-0.5,0-0.9-0.2-1.3-0.5c-0.8-0.7-0.9-2-0.2-2.8l26.9-31.8c0.7-0.8,2-0.9,2.8-0.2
				c0.8,0.7,0.9,2,0.2,2.8l-26.9,31.8C883.1,691.3,882.6,691.6,882,691.6z"/>
		</g>
	</g>
</g>
<g>
	<g>
		<g>
			<path class="st2" d="M803,79.4c-0.5,0-0.9-0.2-1.3-0.5c-0.8-0.7-0.9-2-0.2-2.8l25.6-29.7c0.7-0.8,2-0.9,2.8-0.2
				c0.8,0.7,0.9,2,0.2,2.8l-25.6,29.7C804.1,79.2,803.6,79.4,803,79.4z"/>
		</g>
	</g>
	<g>
		<g>
			<path class="st2" d="M828.8,49.3c-0.7,0-1.3-0.3-1.7-0.9l-8.6-13.2c-0.6-0.9-0.3-2.2,0.6-2.8c0.9-0.6,2.2-0.3,2.8,0.6l8.6,13.2
				c0.6,0.9,0.3,2.2-0.6,2.8C829.5,49.2,829.2,49.3,828.8,49.3z"/>
		</g>
	</g>
	<g>
		<g>
			<path class="st2" d="M852.9,55.5c-0.3,0-0.7-0.1-1-0.3l-32.7-19.3c-1-0.6-1.3-1.8-0.7-2.7c0.6-1,1.8-1.3,2.7-0.7l32.7,19.3
				c1,0.6,1.3,1.8,0.7,2.7C854.2,55.1,853.6,55.5,852.9,55.5z"/>
		</g>
	</g>
	<g>
		<g>
			<path class="st2" d="M854.9,53.5c0,0.1,0,0.2,0,0.3c0,0.1,0,0.2,0,0.3c0,0.2-0.1,0.3-0.2,0.5c0,0.1-0.1,0.2-0.2,0.3
				c0,0.1-0.1,0.1-0.2,0.2l0,0c0,0,0,0-0.1,0c-0.1,0.1-0.2,0.1-0.3,0.2c-0.1,0.1-0.2,0.1-0.3,0.2c-0.1,0-0.1,0-0.2,0.1
				c0,0-0.1,0-0.1,0c0,0-0.1,0-0.2,0c-0.1,0-0.2,0-0.3,0c-0.1,0-0.2,0-0.3,0c-0.1,0-0.2,0-0.3-0.1c-0.1,0-0.2,0-0.3-0.1
				c-0.1,0-0.3-0.1-0.4-0.2c-0.1-0.1-0.2-0.2-0.3-0.3l-8.9-9.8l0,0L801.6,0h5.4l47.3,52l0.1,0.1c0.1,0.1,0.2,0.2,0.2,0.3
				c0,0,0.1,0.1,0.1,0.2c0,0,0,0.1,0.1,0.2s0,0.1,0,0.2c0,0,0,0.1,0,0.1c0,0,0,0.1,0,0.2C854.9,53.3,854.9,53.4,854.9,53.5z"/>
		</g>
	</g>
	<g>
		<g>
			<path class="st2" d="M900.2,54.7c0,0.1,0,0.2,0,0.3c0,0,0,0.1,0,0.1c0,0,0,0,0,0c0,0.1,0,0.2-0.1,0.2c0,0.1-0.1,0.2-0.2,0.3
				c-0.1,0.1-0.2,0.2-0.2,0.3c-0.1,0.1-0.2,0.2-0.3,0.3c-0.1,0-0.2,0.1-0.2,0.1c-0.1,0-0.2,0.1-0.2,0.1c0,0,0,0-0.1,0c0,0,0,0,0,0
				c-0.1,0-0.1,0-0.2,0c-0.1,0-0.1,0-0.2,0c-0.1,0-0.2,0-0.3,0c-0.1,0-0.2,0-0.3,0c-0.1,0-0.2,0-0.3-0.1c-0.1,0-0.2,0-0.3-0.1
				s-0.2-0.1-0.3-0.1l-0.1-0.1c0,0,0,0,0,0L808.3,0h7.5l65.3,41.5l0,0L899.3,53c0.1,0,0.1,0.1,0.2,0.2l0.1,0.1
				c0.2,0.1,0.3,0.3,0.4,0.5c0,0.1,0.1,0.2,0.1,0.2c0,0.1,0,0.1,0.1,0.2c0,0.1,0,0.2,0,0.3S900.2,54.6,900.2,54.7z"/>
		</g>
	</g>
	<g>
		<g>
			<path class="st2" d="M836.7,0l44.4,41.5l0,0l15.7,14.7c0.1,0.1,0.1,0.1,0.2,0.1c0,0,0,0,0,0l0.1,0.1c0.1,0.1,0.2,0.1,0.3,0.1
				c0.1,0,0.2,0.1,0.3,0.1c0.1,0,0.2,0,0.3,0.1c0.1,0,0.2,0,0.3,0c0.1,0,0.2,0,0.3,0c0,0,0.1,0,0.2,0c0.1,0,0.2,0,0.2-0.1
				c0.1,0,0.2-0.1,0.2-0.1c0.1,0,0.2-0.1,0.2-0.1c0.1-0.1,0.2-0.2,0.3-0.3c0.1-0.1,0.2-0.2,0.2-0.3c0.1-0.1,0.1-0.2,0.2-0.3
				c0-0.1,0.1-0.1,0.1-0.2c0,0,0,0,0,0c0,0,0-0.1,0-0.1c0-0.1,0-0.2,0-0.3c0-0.1,0-0.2,0-0.3c0-0.1,0-0.2,0-0.3c0-0.1,0-0.1-0.1-0.2
				c0-0.1-0.1-0.2-0.1-0.2c-0.1-0.2-0.2-0.4-0.4-0.5l-0.1-0.1l-45.7-42.6L842.5,0H837H836.7z"/>
		</g>
	</g>
	<g>
		<g>
			<path class="st2" d="M871.2,17.8c0,0.1,0,0.2,0,0.3c0,0.1,0,0.2-0.1,0.3c0,0.1-0.1,0.2-0.1,0.3c-0.1,0.3-0.3,0.5-0.5,0.7
				c-0.1,0.1-0.1,0.1-0.2,0.2c0,0-0.1,0.1-0.1,0.1c-0.3,0.2-0.6,0.3-1,0.3c-0.1,0-0.2,0-0.3,0c-0.1,0-0.2,0-0.3-0.1
				c-0.1,0-0.2-0.1-0.3-0.1c-0.1,0-0.2-0.1-0.3-0.1l-14.3-9L837,0h7.5L859,9.1l11.2,7c0.2,0.1,0.3,0.2,0.4,0.3l0.1,0.1
				c0.1,0.1,0.1,0.2,0.2,0.2c0,0,0,0.1,0.1,0.1C871.1,17.1,871.2,17.5,871.2,17.8z"/>
		</g>
	</g>
	<g>
		<g>
			<path class="st2" d="M869.2,19.8c-0.6,0-1.1-0.2-1.5-0.7L857.5,7.3c-0.7-0.8-0.6-2.1,0.2-2.8s2.1-0.6,2.8,0.2l10.2,11.8
				c0.7,0.8,0.6,2.1-0.2,2.8C870.1,19.6,869.6,19.8,869.2,19.8z"/>
		</g>
	</g>
	<g>
		<g>
			<path class="st2" d="M866.3,0l-4.9,5.8l-0.9,1.1c-0.4,0.5-1,0.7-1.5,0.7c-0.5,0-0.9-0.1-1.3-0.5c-0.4-0.3-0.6-0.8-0.7-1.3
				c0,0,0,0,0-0.1c-0.1-0.5,0.1-1,0.4-1.5l3.6-4.3H866.3z"/>
		</g>
	</g>
</g>
<g>
	<g>
		<g>
			<path class="st2" d="M1562.7,473.3c-1,0-1.9-0.8-2-1.8l-4.5-39c-0.1-1.1,0.7-2.1,1.8-2.2c1.1-0.1,2.1,0.7,2.2,1.8l4.5,39
				c0.1,1.1-0.7,2.1-1.8,2.2C1562.9,473.3,1562.8,473.3,1562.7,473.3z"/>
		</g>
	</g>
	<g>
		<g>
			<path class="st2" d="M1558,433.9c-0.1,0-0.2,0-0.3,0l-15.5-2.6c-1.1-0.2-1.8-1.2-1.6-2.3c0.2-1.1,1.2-1.8,2.3-1.6l15.5,2.6
				c1.1,0.2,1.8,1.2,1.6,2.3C1559.8,433.2,1559,433.9,1558,433.9z"/>
		</g>
	</g>
	<g>
		<g>
			<path class="st2" d="M1542.5,431.3c-0.9,0-1.7-0.6-1.9-1.4c-0.3-1.1,0.3-2.2,1.3-2.5l36.4-11c1-0.3,2.2,0.3,2.5,1.3
				c0.3,1.1-0.3,2.2-1.3,2.5l-36.4,11C1542.8,431.3,1542.7,431.3,1542.5,431.3z"/>
		</g>
	</g>
	<g>
		<g>
			<path class="st2" d="M1578.8,420.3C1578.8,420.3,1578.8,420.3,1578.8,420.3l-87.8-0.5c-1.1,0-2-0.9-2-2c0-1.1,0.9-2,2-2
				c0,0,0,0,0,0l87.8,0.5c1.1,0,2,0.9,2,2C1580.8,419.4,1579.9,420.3,1578.8,420.3z"/>
		</g>
	</g>
	<g>
		<g>
			<path class="st2" d="M1491,419.8c-0.9,0-1.7-0.6-1.9-1.5c-0.3-1.1,0.3-2.2,1.4-2.4l119.4-32c1.1-0.3,2.2,0.3,2.4,1.4
				c0.3,1.1-0.3,2.2-1.4,2.4l-119.4,32C1491.4,419.8,1491.2,419.8,1491,419.8z"/>
		</g>
	</g>
	<g>
		<g>
			<path class="st2" d="M1527.1,394.2c-1,0-1.9-0.8-2-1.8c-0.1-1.1,0.7-2.1,1.8-2.1l83.3-6.4c1.1-0.1,2.1,0.7,2.1,1.8
				c0.1,1.1-0.7,2.1-1.8,2.1l-83.3,6.4C1527.2,394.2,1527.2,394.2,1527.1,394.2z"/>
		</g>
	</g>
	<g>
		<g>
			<path class="st2" d="M1527.1,394.2c-0.9,0-1.7-0.6-1.9-1.5c-0.3-1.1,0.3-2.2,1.4-2.5l36.5-10c1.1-0.3,2.2,0.3,2.5,1.4
				c0.3,1.1-0.3,2.2-1.4,2.5l-36.5,10C1527.5,394.2,1527.3,394.2,1527.1,394.2z"/>
		</g>
	</g>
	<g>
		<g>
			<path class="st2" d="M1563.6,384.2C1563.6,384.2,1563.6,384.2,1563.6,384.2l-15.6-0.5c-1.1,0-2-1-1.9-2.1c0-1.1,1-1.9,2.1-1.9
				l15.6,0.5c1.1,0,2,1,1.9,2.1C1565.6,383.3,1564.7,384.2,1563.6,384.2z"/>
		</g>
	</g>
	<g>
		<g>
			<path class="st2" d="M1547.7,383.4c-1,0-1.9-0.7-2-1.8l-5.2-41.3c-0.1-1.1,0.6-2.1,1.7-2.2c1.1-0.1,2.1,0.6,2.2,1.7l5.2,41.3
				c0.1,1.1-0.6,2.1-1.7,2.2C1547.9,383.4,1547.8,383.4,1547.7,383.4z"/>
		</g>
	</g>
</g>
</svg>
